<svg xmlns="http://www.w3.org/2000/svg" viewBox="0 0 64 80" x="0px" y="0px"><title>0001 - Travel</title><path d="M32,5.25A26.75,26.75,0,1,0,58.75,32,26.78,26.78,0,0,0,32,5.25ZM51.512,46.379a31.34,31.34,0,0,0-3.443-1.71A36.445,36.445,0,0,0,50.228,33.25h5.99A24.114,24.114,0,0,1,51.512,46.379ZM7.782,33.25h5.99a36.63,36.63,0,0,0,1.972,10.885A30.246,30.246,0,0,0,12.078,45.8,24.1,24.1,0,0,1,7.782,33.25Zm4.286-15.039a32.418,32.418,0,0,0,3.64,1.758A36.7,36.7,0,0,0,13.772,30.75H7.782A24.1,24.1,0,0,1,12.068,18.211ZM40.148,30.75c-.037-2.77-.2-5.527-.473-8.151a43.569,43.569,0,0,0,6.4-1.471,34.738,34.738,0,0,1,1.657,9.622Zm-13.8,0c.037-2.865.2-5.515.455-7.921a45.59,45.59,0,0,0,5.454.327c1.748,0,3.394-.091,4.939-.245.25,2.384.41,5.006.446,7.839Zm11.294,2.5a84.93,84.93,0,0,1-.517,8.485,44.318,44.318,0,0,0-5.654-.36c-1.63,0-3.17.08-4.621.219-.282-2.517-.463-5.309-.5-8.344ZM39.37,20.108c-.658-4.7-1.727-8.792-3.192-11.485,3.745,1.588,6.934,5.255,9.01,10.144A41.383,41.383,0,0,1,39.37,20.108Zm-2.475.316a46.216,46.216,0,0,1-4.633.232,42.311,42.311,0,0,1-5.146-.314C28.243,12.425,30.379,7.75,32,7.75S35.772,12.457,36.9,20.424Zm-9.073-11.8c-1.45,2.666-2.513,6.7-3.173,11.342a40.872,40.872,0,0,1-5.72-1.48C21.007,13.736,24.149,10.181,27.822,8.623ZM24.34,22.461c-.287,2.665-.451,5.47-.488,8.289H16.271a34.619,34.619,0,0,1,1.753-9.911A42.793,42.793,0,0,0,24.34,22.461ZM16.271,33.25h7.581c.039,2.946.216,5.878.526,8.65a42.914,42.914,0,0,0-6.3,1.427A34.532,34.532,0,0,1,16.271,33.25ZM24.7,44.387a34.986,34.986,0,0,0,3.121,10.99c-3.631-1.54-6.74-5.032-8.819-9.7A40.852,40.852,0,0,1,24.7,44.387Zm2.475-.308c1.352-.129,2.786-.2,4.3-.2a41.218,41.218,0,0,1,5.327.345C35.657,51.8,33.583,56.25,32,56.25S28.317,51.743,27.176,44.079Zm9,11.3a34.54,34.54,0,0,0,3.085-10.758A39.612,39.612,0,0,1,44.8,46.105C42.724,50.557,39.7,53.885,36.178,55.377ZM39.6,42.126a88.483,88.483,0,0,0,.553-8.876h7.581a34.348,34.348,0,0,1-1.966,10.522A41.75,41.75,0,0,0,39.6,42.126ZM50.228,30.75a36.791,36.791,0,0,0-1.815-10.435,29.713,29.713,0,0,0,3.772-1.737A24.1,24.1,0,0,1,56.218,30.75Zm.446-14.2a29.16,29.16,0,0,1-3.148,1.412A25.52,25.52,0,0,0,42.5,10.145,24.381,24.381,0,0,1,50.674,16.548ZM21.5,10.145a25.326,25.326,0,0,0-4.874,7.476,32.006,32.006,0,0,1-3-1.415A24.373,24.373,0,0,1,21.5,10.145ZM13.638,47.813a30.2,30.2,0,0,1,3.028-1.336A25.244,25.244,0,0,0,21.5,53.855,24.389,24.389,0,0,1,13.638,47.813ZM42.5,53.855A24.941,24.941,0,0,0,47.105,47,30.476,30.476,0,0,1,49.9,48.345,24.369,24.369,0,0,1,42.5,53.855Z"/><text x="0" y="79" fill="#000000" font-size="5px" font-weight="bold" font-family="'Helvetica Neue', Helvetica, Arial-Unicode, Arial, Sans-serif">Created by Dendy Herlambang</text><text x="0" y="84" fill="#000000" font-size="5px" font-weight="bold" font-family="'Helvetica Neue', Helvetica, Arial-Unicode, Arial, Sans-serif">from the Noun Project</text></svg>