<svg xmlns="http://www.w3.org/2000/svg" xmlns:xlink="http://www.w3.org/1999/xlink" version="1.1" x="0px" y="0px" viewBox="0 0 100 125" enable-background="new 0 0 100 100" xml:space="preserve"><g><ellipse cx="57.529" cy="83.21" rx="7.53" ry="2.354"/><ellipse cx="70.116" cy="33.809" rx="1.43" ry="1.324"/><path d="M87.231,32.498l-9.63-4.479c-1.841-7.235-9.831-13.583-20.71-13.583c-11.955,0-19.471,10.57-19.471,22.525   c0,1.237,0.12,2.448,0.321,3.631c0.432,13.112-11.106,12.749-17.078,10.233c-0.363-0.887-0.807-1.87-1.318-2.891   c-1.748-3.469-3.645-6.065-4.222-5.77c-0.551,0.282,0.269,3.027,1.842,6.254c-3.511-3.227-5.245-7.397-5.245-2.153   c0,13.34,14.469,32.908,32.893,32.908c21.369,0,36.069-13.704,36.027-35.879l6.536-7.06c0.673-0.376,1.089-1.076,1.103-1.856   C88.293,33.613,87.889,32.9,87.231,32.498z M68.578,36.236c-1.747,0-3.16-1.413-3.16-3.161c0-1.761,1.413-3.174,3.16-3.174   c1.748,0,3.174,1.413,3.174,3.174C71.752,34.823,70.326,36.236,68.578,36.236z"/></g><text x="0" y="115" fill="#000000" font-size="5px" font-weight="bold" font-family="'Helvetica Neue', Helvetica, Arial-Unicode, Arial, Sans-serif">Created by Ker'is</text><text x="0" y="120" fill="#000000" font-size="5px" font-weight="bold" font-family="'Helvetica Neue', Helvetica, Arial-Unicode, Arial, Sans-serif">from the Noun Project</text></svg>