<?xml version="1.0" encoding="UTF-8" standalone="no"?>
<svg
   xmlns:dc="http://purl.org/dc/elements/1.1/"
   xmlns:cc="http://creativecommons.org/ns#"
   xmlns:rdf="http://www.w3.org/1999/02/22-rdf-syntax-ns#"
   xmlns:svg="http://www.w3.org/2000/svg"
   xmlns="http://www.w3.org/2000/svg"
   xmlns:sodipodi="http://sodipodi.sourceforge.net/DTD/sodipodi-0.dtd"
   xmlns:inkscape="http://www.inkscape.org/namespaces/inkscape"
   data-v-423bf9ae=""
   viewBox="0 0 120.66605 90"
   class="iconLeftSlogan"
   version="1.1"
   id="svg17"
   sodipodi:docname="favicon.svg"
   width="120.66605"
   height="90"
   inkscape:version="1.0.1 (0767f8302a, 2020-10-17)">
  <metadata
     id="metadata23">
    <rdf:RDF>
      <cc:Work
         rdf:about="">
        <dc:format>image/svg+xml</dc:format>
        <dc:type
           rdf:resource="http://purl.org/dc/dcmitype/StillImage" />
        <dc:title></dc:title>
      </cc:Work>
    </rdf:RDF>
  </metadata>
  <defs
     id="defs21" />
  <sodipodi:namedview
     pagecolor="#ffffff"
     bordercolor="#666666"
     borderopacity="1"
     objecttolerance="10"
     gridtolerance="10"
     guidetolerance="10"
     inkscape:pageopacity="0"
     inkscape:pageshadow="2"
     inkscape:window-width="1190"
     inkscape:window-height="779"
     id="namedview19"
     showgrid="false"
     fit-margin-top="0"
     fit-margin-left="0"
     fit-margin-right="0"
     fit-margin-bottom="0"
     inkscape:zoom="2.7416667"
     inkscape:cx="46.85713"
     inkscape:cy="44.965491"
     inkscape:window-x="0"
     inkscape:window-y="27"
     inkscape:window-maximized="0"
     inkscape:current-layer="svg17" />
  <!---->
  <!---->
  <!---->
  <!---->
  <g
     data-v-423bf9ae=""
     id="39418335-4563-4d50-95aa-89bbd9ca5816"
     transform="matrix(1.2066366,0,0,1.2066366,-0.32596765,-15.727913)"
     stroke="none"
     fill="#ff0000">
    <circle
       cx="35.735001"
       cy="49.639"
       r="4.3969998"
       id="circle5" />
    <circle
       cx="66.598999"
       cy="49.639"
       r="4.3969998"
       id="circle7" />
    <path
       d="m 43.107,60.675 c 0,4.168 7.546,7.55 7.546,7.55 0,0 7.55,-3.382 7.55,-7.55 0,-4.168 -15.096,-4.168 -15.096,0 z"
       id="path9" />
    <path
       d="m 98.236,69.06 -9.263,-1.48 a 29.861,29.861 0 0 0 1.438,-3.615 l 7.062,1.131 c 0.13,0.021 0.258,0.028 0.386,0.028 a 2.417,2.417 0 0 0 0.379,-4.803 l -6.675,-1.067 c 0.28,-1.726 0.427,-3.508 0.427,-5.343 0,-6.845 -4.561,-22.027 -6.425,-26.725 -1.431,-3.602 -2.868,-5.95 -4.531,-8.67 a 121.748,121.748 0 0 1 -2.514,-4.245 2.416,2.416 0 0 0 -1.964,-1.23 c -0.849,-0.062 -1.611,0.324 -2.097,0.987 -3.021,4.139 -7.708,8.75 -9.605,8.75 -0.775,0 -2.202,-0.176 -3.855,-0.38 -2.922,-0.36 -6.562,-0.81 -10.338,-0.81 -3.111,0 -6.12,0.394 -8.776,0.741 -1.843,0.241 -3.434,0.449 -4.533,0.449 -3.984,0 -8.543,-6.114 -9.827,-8.256 a 2.418,2.418 0 0 0 -2.058,-1.175 2.373,2.373 0 0 0 -2.072,1.145 c -2.846,4.602 -4.725,7.642 -6.769,12.961 -1.877,4.884 -6.276,19.777 -6.276,26.457 0,1.735 0.136,3.422 0.386,5.062 L 2.311,60.32 a 2.4178669,2.4178669 0 0 0 0.764,4.775 l 8.765,-1.402 a 29.993,29.993 0 0 0 1.403,3.62 L 2.307,69.06 a 2.4188543,2.4188543 0 1 0 0.764,4.777 l 12.746,-2.039 c 6.81,9.795 19.501,15.824 35.349,15.824 15.708,0 28.317,-5.926 35.172,-15.568 l 11.136,1.781 a 2.415,2.415 0 0 0 2.768,-2.005 2.42,2.42 0 0 0 -2.006,-2.77 z M 51.165,82.786 c -11.613,0 -23.289,-3.759 -30.068,-11.836 l 2.122,-0.338 a 2.4172942,2.4172942 0 0 0 -0.763,-4.774 l -4.327,0.693 A 24.89,24.89 0 0 1 16.598,62.93 l 6.621,-1.057 a 2.418,2.418 0 0 0 -0.763,-4.775 l -6.967,1.115 a 30.546,30.546 0 0 1 -0.31,-4.302 c 0,-5.423 3.863,-19.281 5.955,-24.725 1.408,-3.665 2.707,-6.117 4.445,-9.015 2.48,3.151 6.775,7.44 11.767,7.44 1.414,0 3.149,-0.227 5.16,-0.489 2.508,-0.328 5.352,-0.7 8.15,-0.7 3.479,0 6.953,0.428 9.746,0.772 1.886,0.232 3.375,0.417 4.446,0.417 3.909,0 8.436,-4.511 11.267,-7.873 0.271,0.448 0.534,0.88 0.793,1.301 1.609,2.635 2.883,4.715 4.16,7.93 2.081,5.247 6.083,19.387 6.083,24.941 0,1.6 -0.129,3.12 -0.352,4.58 l -8.715,-1.394 a 2.408,2.408 0 0 0 -2.769,2.005 2.42,2.42 0 0 0 2.004,2.769 l 8.316,1.329 a 24.754,24.754 0 0 1 -1.567,3.592 l -5.984,-0.957 c -1.332,-0.212 -2.559,0.687 -2.77,2.004 -0.211,1.317 0.688,2.558 2.003,2.769 l 3.694,0.592 C 74.207,79.103 62.656,82.786 51.165,82.786 Z"
       id="path11" />
  </g>
  <!---->
</svg>
