<?xml version="1.0" encoding="UTF-8" standalone="no"?>
<svg
   xmlns:dc="http://purl.org/dc/elements/1.1/"
   xmlns:cc="http://creativecommons.org/ns#"
   xmlns:rdf="http://www.w3.org/1999/02/22-rdf-syntax-ns#"
   xmlns:svg="http://www.w3.org/2000/svg"
   xmlns="http://www.w3.org/2000/svg"
   xmlns:sodipodi="http://sodipodi.sourceforge.net/DTD/sodipodi-0.dtd"
   xmlns:inkscape="http://www.inkscape.org/namespaces/inkscape"
   data-v-423bf9ae=""
   viewBox="0 0 500 90"
   class="iconLeftSlogan"
   version="1.1"
   id="svg17"
   sodipodi:docname="logo.svg"
   inkscape:version="1.0.1 (0767f8302a, 2020-10-17)"
   width="500"
   height="90">
  <metadata
     id="metadata23">
    <rdf:RDF>
      <cc:Work
         rdf:about="">
        <dc:format>image/svg+xml</dc:format>
        <dc:type
           rdf:resource="http://purl.org/dc/dcmitype/StillImage" />
        <dc:title></dc:title>
      </cc:Work>
    </rdf:RDF>
  </metadata>
  <defs
     id="defs21" />
  <sodipodi:namedview
     pagecolor="#ffffff"
     bordercolor="#666666"
     borderopacity="1"
     objecttolerance="10"
     gridtolerance="10"
     guidetolerance="10"
     inkscape:pageopacity="0"
     inkscape:pageshadow="2"
     inkscape:window-width="1920"
     inkscape:window-height="948"
     id="namedview19"
     showgrid="false"
     showguides="true"
     inkscape:guide-bbox="true"
     inkscape:zoom="2.7416667"
     inkscape:cx="278.40203"
     inkscape:cy="5.8390377"
     inkscape:window-x="0"
     inkscape:window-y="27"
     inkscape:window-maximized="1"
     inkscape:current-layer="a14b3336-9c7b-40e7-bb9d-b1fe77834c9c"
     inkscape:document-rotation="0">
    <sodipodi:guide
       position="140.5513,107.39109"
       orientation="1,0"
       id="guide916" />
    <sodipodi:guide
       position="479.45289,66.474164"
       orientation="1,0"
       id="guide918" />
    <sodipodi:guide
       position="255.33218,11.337057"
       orientation="0,-1"
       id="guide935" />
  </sodipodi:namedview>
  <!---->
  <!---->
  <!---->
  <g
     data-v-423bf9ae=""
     id="895bf5f8-bd23-4323-a658-9f72d614bf7d"
     fill="#2f190e"
     transform="matrix(4.5489005,0,0,4.5489005,144.88894,-14.010612)">
    <path
       d="m 5.21,6.06 v 0 q 1.08,0 1.93,0.48 v 0 0 q 0.85,0.47 1.34,1.33 v 0 0 q 0.48,0.85 0.48,1.97 v 0 0 q 0,1.12 -0.48,1.98 v 0 0 q -0.49,0.86 -1.34,1.34 v 0 0 q -0.85,0.48 -1.93,0.48 v 0 0 q -0.8,0 -1.46,-0.31 v 0 0 Q 3.08,13.02 2.62,12.43 v 0 3.84 H 1.27 V 6.13 h 1.29 v 1.18 0 Q 3.01,6.69 3.7,6.38 v 0 0 Q 4.38,6.06 5.21,6.06 Z m -0.11,6.4 v 0 q 0.71,0 1.28,-0.33 v 0 0 Q 6.94,11.8 7.27,11.21 v 0 0 Q 7.6,10.61 7.6,9.84 v 0 0 Q 7.6,9.07 7.27,8.48 v 0 0 Q 6.94,7.88 6.38,7.56 v 0 0 Q 5.81,7.24 5.1,7.24 v 0 0 q -0.7,0 -1.27,0.33 v 0 0 Q 3.26,7.9 2.93,8.48 v 0 0 Q 2.6,9.07 2.6,9.84 v 0 0 q 0,0.77 0.33,1.37 v 0 0 q 0.32,0.59 0.89,0.92 v 0 0 Q 4.4,12.46 5.1,12.46 Z M 17.53,9.88 v 0 q 0,0.16 -0.03,0.41 v 0 h -6.02 v 0 q 0.13,0.98 0.86,1.58 v 0 0 q 0.74,0.59 1.83,0.59 v 0 0 q 1.33,0 2.14,-0.9 v 0 l 0.74,0.87 v 0 q -0.5,0.59 -1.25,0.9 v 0 0 q -0.75,0.31 -1.67,0.31 v 0 0 q -1.18,0 -2.09,-0.49 v 0 0 Q 11.13,12.67 10.63,11.8 v 0 0 Q 10.14,10.93 10.14,9.84 v 0 0 q 0,-1.08 0.48,-1.94 v 0 0 Q 11.1,7.03 11.95,6.54 v 0 0 Q 12.8,6.06 13.86,6.06 v 0 0 q 1.06,0 1.9,0.48 v 0 0 q 0.83,0.49 1.3,1.36 v 0 0 q 0.47,0.86 0.47,1.98 z M 13.86,7.2 v 0 q -0.97,0 -1.62,0.58 v 0 0 q -0.65,0.59 -0.76,1.54 v 0 h 4.76 v 0 Q 16.13,8.39 15.48,7.79 v 0 0 Q 14.83,7.2 13.86,7.2 Z m 9.28,4.95 0.42,0.97 v 0 q -0.29,0.25 -0.73,0.38 v 0 0 q -0.43,0.14 -0.89,0.14 v 0 0 q -1.12,0 -1.74,-0.61 v 0 0 q -0.61,-0.6 -0.61,-1.72 v 0 -4.07 H 18.33 V 6.13 h 1.26 V 4.51 h 1.34 v 1.62 h 2.13 v 1.11 h -2.13 v 4.02 0 q 0,0.6 0.3,0.92 v 0 0 q 0.3,0.32 0.86,0.32 v 0 0 q 0.62,0 1.05,-0.35 z m 7.94,1.49 v 0 q -0.91,0 -1.75,-0.25 v 0 0 q -0.84,-0.24 -1.32,-0.62 v 0 l 0.56,-1.07 v 0 q 0.49,0.35 1.19,0.56 v 0 0 q 0.7,0.21 1.42,0.21 v 0 0 q 1.76,0 1.76,-1 v 0 0 q 0,-0.34 -0.24,-0.54 v 0 0 q -0.23,-0.19 -0.59,-0.28 v 0 0 q -0.36,-0.09 -1.02,-0.21 v 0 0 Q 30.2,10.3 29.63,10.12 v 0 0 Q 29.06,9.94 28.66,9.51 v 0 0 Q 28.25,9.07 28.25,8.29 v 0 0 q 0,-1.01 0.84,-1.62 v 0 0 q 0.84,-0.61 2.26,-0.61 v 0 0 q 0.74,0 1.48,0.18 v 0 0 q 0.74,0.19 1.22,0.49 v 0 L 33.47,7.8 v 0 Q 32.56,7.21 31.33,7.21 v 0 0 q -0.85,0 -1.3,0.28 v 0 0 q -0.45,0.28 -0.45,0.74 v 0 0 q 0,0.37 0.25,0.58 v 0 0 q 0.26,0.21 0.63,0.3 v 0 0 q 0.37,0.1 1.04,0.23 v 0 0 q 0.9,0.15 1.45,0.33 v 0 0 q 0.55,0.17 0.94,0.59 v 0 0 q 0.4,0.42 0.4,1.18 v 0 0 q 0,1.01 -0.87,1.6 v 0 0 q -0.86,0.6 -2.34,0.6 z M 41.54,6.13 h 1.34 v 7.42 h -1.27 v -1.12 0 q -0.41,0.58 -1.07,0.89 v 0 0 q -0.67,0.32 -1.45,0.32 v 0 0 q -1.49,0 -2.34,-0.82 v 0 0 Q 35.9,12 35.9,10.4 v 0 -4.27 h 1.34 v 4.12 0 q 0,1.08 0.52,1.63 v 0 0 q 0.52,0.55 1.48,0.55 v 0 0 q 1.07,0 1.68,-0.64 v 0 0 q 0.62,-0.65 0.62,-1.82 v 0 z m 5.19,1.25 v 0 Q 47.08,6.73 47.77,6.4 v 0 0 q 0.68,-0.34 1.66,-0.34 v 0 1.3 0 Q 49.32,7.35 49.13,7.35 v 0 0 q -1.1,0 -1.72,0.65 v 0 0 q -0.62,0.65 -0.62,1.86 v 0 3.69 H 45.44 V 6.13 h 1.29 z M 53.9,4.19 v 0 q -1.2,0 -1.2,1.3 v 0 0.64 h 2.15 v 1.11 h -2.13 v 6.31 H 51.38 V 7.24 H 50.12 V 6.13 h 1.26 v -0.66 0 q 0,-1.1 0.64,-1.75 v 0 0 q 0.65,-0.64 1.81,-0.64 v 0 0 q 0.45,0 0.84,0.11 v 0 0 q 0.39,0.11 0.67,0.32 v 0 l -0.4,1.03 v 0 Q 54.47,4.19 53.9,4.19 Z m 8.93,5.69 v 0 q 0,0.16 -0.03,0.41 v 0 h -6.02 v 0 q 0.13,0.98 0.87,1.58 v 0 0 q 0.73,0.59 1.82,0.59 v 0 0 q 1.33,0 2.14,-0.9 v 0 l 0.75,0.87 v 0 q -0.51,0.59 -1.26,0.9 v 0 0 q -0.75,0.31 -1.67,0.31 v 0 0 q -1.18,0 -2.09,-0.49 v 0 0 q -0.91,-0.48 -1.4,-1.35 v 0 0 q -0.5,-0.87 -0.5,-1.96 v 0 0 q 0,-1.08 0.48,-1.94 v 0 0 q 0.49,-0.87 1.33,-1.36 v 0 0 Q 58.1,6.06 59.16,6.06 v 0 0 q 1.07,0 1.9,0.48 v 0 0 q 0.83,0.49 1.3,1.36 v 0 0 q 0.47,0.86 0.47,1.98 z M 59.16,7.2 v 0 q -0.96,0 -1.61,0.58 v 0 0 Q 56.9,8.37 56.78,9.32 v 0 h 4.76 v 0 Q 61.43,8.39 60.78,7.79 v 0 0 Q 60.13,7.2 59.16,7.2 Z m 6.82,0.18 v 0 Q 66.33,6.73 67.02,6.4 v 0 0 Q 67.7,6.06 68.68,6.06 v 0 1.3 0 Q 68.57,7.35 68.38,7.35 v 0 0 q -1.1,0 -1.72,0.65 v 0 0 q -0.62,0.65 -0.62,1.86 v 0 3.69 H 64.69 V 6.13 h 1.29 z m 6.58,6.26 v 0 q -0.91,0 -1.75,-0.25 v 0 0 Q 69.97,13.15 69.5,12.77 v 0 l 0.56,-1.07 v 0 q 0.49,0.35 1.19,0.56 v 0 0 q 0.7,0.21 1.41,0.21 v 0 0 q 1.76,0 1.76,-1 v 0 0 q 0,-0.34 -0.23,-0.54 v 0 0 q -0.24,-0.19 -0.6,-0.28 v 0 0 q -0.36,-0.09 -1.01,-0.21 v 0 0 q -0.9,-0.14 -1.47,-0.32 v 0 0 Q 70.55,9.94 70.14,9.51 v 0 0 Q 69.73,9.07 69.73,8.29 v 0 0 q 0,-1.01 0.84,-1.62 v 0 0 q 0.84,-0.61 2.26,-0.61 v 0 0 q 0.74,0 1.48,0.18 v 0 0 q 0.74,0.19 1.22,0.49 v 0 L 74.96,7.8 v 0 Q 74.05,7.21 72.81,7.21 v 0 0 q -0.85,0 -1.3,0.28 v 0 0 q -0.45,0.28 -0.45,0.74 v 0 0 q 0,0.37 0.26,0.58 v 0 0 q 0.25,0.21 0.62,0.3 v 0 0 q 0.37,0.1 1.04,0.23 v 0 0 q 0.9,0.15 1.45,0.33 v 0 0 q 0.55,0.17 0.95,0.59 v 0 0 q 0.39,0.42 0.39,1.18 v 0 0 q 0,1.01 -0.86,1.6 v 0 0 q -0.86,0.6 -2.35,0.6 z"
       id="path2" />
  </g>
  <!---->
  <g
     data-v-423bf9ae=""
     id="39418335-4563-4d50-95aa-89bbd9ca5816"
     transform="matrix(1.2066366,0,0,1.2066366,10.611156,-15.693404)"
     stroke="none"
     fill="#ff0000">
    <circle
       cx="35.735001"
       cy="49.639"
       r="4.3969998"
       id="circle5" />
    <circle
       cx="66.598999"
       cy="49.639"
       r="4.3969998"
       id="circle7" />
    <path
       d="m 43.107,60.675 c 0,4.168 7.546,7.55 7.546,7.55 0,0 7.55,-3.382 7.55,-7.55 0,-4.168 -15.096,-4.168 -15.096,0 z"
       id="path9" />
    <path
       d="m 98.236,69.06 -9.263,-1.48 a 29.861,29.861 0 0 0 1.438,-3.615 l 7.062,1.131 c 0.13,0.021 0.258,0.028 0.386,0.028 a 2.417,2.417 0 0 0 0.379,-4.803 l -6.675,-1.067 c 0.28,-1.726 0.427,-3.508 0.427,-5.343 0,-6.845 -4.561,-22.027 -6.425,-26.725 -1.431,-3.602 -2.868,-5.95 -4.531,-8.67 a 121.748,121.748 0 0 1 -2.514,-4.245 2.416,2.416 0 0 0 -1.964,-1.23 c -0.849,-0.062 -1.611,0.324 -2.097,0.987 -3.021,4.139 -7.708,8.75 -9.605,8.75 -0.775,0 -2.202,-0.176 -3.855,-0.38 -2.922,-0.36 -6.562,-0.81 -10.338,-0.81 -3.111,0 -6.12,0.394 -8.776,0.741 -1.843,0.241 -3.434,0.449 -4.533,0.449 -3.984,0 -8.543,-6.114 -9.827,-8.256 a 2.418,2.418 0 0 0 -2.058,-1.175 2.373,2.373 0 0 0 -2.072,1.145 c -2.846,4.602 -4.725,7.642 -6.769,12.961 -1.877,4.884 -6.276,19.777 -6.276,26.457 0,1.735 0.136,3.422 0.386,5.062 L 2.311,60.32 a 2.4178669,2.4178669 0 0 0 0.764,4.775 l 8.765,-1.402 a 29.993,29.993 0 0 0 1.403,3.62 L 2.307,69.06 a 2.4188543,2.4188543 0 1 0 0.764,4.777 l 12.746,-2.039 c 6.81,9.795 19.501,15.824 35.349,15.824 15.708,0 28.317,-5.926 35.172,-15.568 l 11.136,1.781 a 2.415,2.415 0 0 0 2.768,-2.005 2.42,2.42 0 0 0 -2.006,-2.77 z M 51.165,82.786 c -11.613,0 -23.289,-3.759 -30.068,-11.836 l 2.122,-0.338 a 2.4172942,2.4172942 0 0 0 -0.763,-4.774 l -4.327,0.693 A 24.89,24.89 0 0 1 16.598,62.93 l 6.621,-1.057 a 2.418,2.418 0 0 0 -0.763,-4.775 l -6.967,1.115 a 30.546,30.546 0 0 1 -0.31,-4.302 c 0,-5.423 3.863,-19.281 5.955,-24.725 1.408,-3.665 2.707,-6.117 4.445,-9.015 2.48,3.151 6.775,7.44 11.767,7.44 1.414,0 3.149,-0.227 5.16,-0.489 2.508,-0.328 5.352,-0.7 8.15,-0.7 3.479,0 6.953,0.428 9.746,0.772 1.886,0.232 3.375,0.417 4.446,0.417 3.909,0 8.436,-4.511 11.267,-7.873 0.271,0.448 0.534,0.88 0.793,1.301 1.609,2.635 2.883,4.715 4.16,7.93 2.081,5.247 6.083,19.387 6.083,24.941 0,1.6 -0.129,3.12 -0.352,4.58 l -8.715,-1.394 a 2.408,2.408 0 0 0 -2.769,2.005 2.42,2.42 0 0 0 2.004,2.769 l 8.316,1.329 a 24.754,24.754 0 0 1 -1.567,3.592 l -5.984,-0.957 c -1.332,-0.212 -2.559,0.687 -2.77,2.004 -0.211,1.317 0.688,2.558 2.003,2.769 l 3.694,0.592 C 74.207,79.103 62.656,82.786 51.165,82.786 Z"
       id="path11" />
  </g>
  <!---->
  <g
     data-v-423bf9ae=""
     id="a14b3336-9c7b-40e7-bb9d-b1fe77834c9c"
     fill="#2f190e"
     transform="matrix(1.0297571,0,0,1.0297571,140.29533,54.140682)">
    <text
       xml:space="preserve"
       style="font-style:normal;font-weight:normal;font-size:19.4221px;line-height:1.25;font-family:sans-serif;fill:#000000;fill-opacity:1;stroke:none;stroke-width:0.971103"
       x="52.378872"
       y="28.85886"
       id="text27"><tspan
         sodipodi:role="line"
         id="tspan25"
         x="52.378872"
         y="28.85886"
         style="font-style:normal;font-variant:normal;font-weight:bold;font-stretch:normal;font-size:19.4221px;font-family:Purisa;-inkscape-font-specification:'Purisa Bold';stroke-width:0.971103">airbnb, but for pets</tspan></text>
    <path
       style="fill:#000000;fill-opacity:1;stroke:#000000;stroke-width:0.971103;stroke-opacity:1"
       id="path64"
       d="m 43.586489,25.178496 c -8.896416,-0.700639 -17.841649,-0.368925 -26.749094,-0.06372 -1.387172,0.05969 -2.77434,0.119376 -4.161519,0.179064 0,0 -2.7162786,-1.480203 -2.7162786,-1.480203 v 0 c 1.4165956,-0.04429 2.8331816,-0.08858 4.2497676,-0.132869 8.771099,-0.252661 17.559168,-0.573084 26.330536,-0.204152 0,0 3.046588,1.70188 3.046588,1.70188 z" />
    <path
       style="fill:#000000;fill-opacity:1;stroke:#000000;stroke-width:0.971103;stroke-opacity:1"
       id="path64-1"
       d="m 304.13612,25.178496 c 8.89641,-0.70064 17.84165,-0.368925 26.74909,-0.06372 1.38717,0.05969 2.77434,0.119376 4.16152,0.179064 0,0 2.71628,-1.480203 2.71628,-1.480203 v 0 c -1.4166,-0.04429 -2.83318,-0.08858 -4.24977,-0.13287 -8.7711,-0.252661 -17.55917,-0.573084 -26.33054,-0.204152 0,0 -3.04658,1.701881 -3.04658,1.701881 z" />
  </g>
</svg>
