<?xml version="1.0" encoding="UTF-8" standalone="no"?>
<svg
   xmlns:dc="http://purl.org/dc/elements/1.1/"
   xmlns:cc="http://creativecommons.org/ns#"
   xmlns:rdf="http://www.w3.org/1999/02/22-rdf-syntax-ns#"
   xmlns:svg="http://www.w3.org/2000/svg"
   xmlns="http://www.w3.org/2000/svg"
   xmlns:sodipodi="http://sodipodi.sourceforge.net/DTD/sodipodi-0.dtd"
   xmlns:inkscape="http://www.inkscape.org/namespaces/inkscape"
   height="90"
   width="500"
   inkscape:version="1.0.1 (0767f8302a, 2020-10-17)"
   sodipodi:docname="logo-left.svg"
   id="svg17"
   version="1.1"
   class="iconLeftSlogan"
   viewBox="0 0 500 90"
   data-v-423bf9ae="">
  <metadata
     id="metadata23">
    <rdf:RDF>
      <cc:Work
         rdf:about="">
        <dc:format>image/svg+xml</dc:format>
        <dc:type
           rdf:resource="http://purl.org/dc/dcmitype/StillImage" />
        <dc:title></dc:title>
      </cc:Work>
    </rdf:RDF>
  </metadata>
  <defs
     id="defs21" />
  <sodipodi:namedview
     pagecolor="#ffffff"
     bordercolor="#666666"
     borderopacity="1"
     objecttolerance="10"
     gridtolerance="10"
     guidetolerance="10"
     inkscape:pageopacity="0"
     inkscape:pageshadow="2"
     inkscape:window-width="1920"
     inkscape:window-height="948"
     id="namedview19"
     showgrid="false"
     showguides="true"
     inkscape:guide-bbox="true"
     inkscape:zoom="2.7416667"
     inkscape:cx="278.40203"
     inkscape:cy="5.8390377"
     inkscape:window-x="0"
     inkscape:window-y="27"
     inkscape:window-maximized="1"
     inkscape:current-layer="svg17"
     inkscape:document-rotation="0">
    <sodipodi:guide
       position="140.5513,107.39109"
       orientation="1,0"
       id="guide916" />
    <sodipodi:guide
       position="479.45289,66.474164"
       orientation="1,0"
       id="guide918" />
    <sodipodi:guide
       position="255.33218,11.337057"
       orientation="0,-1"
       id="guide935" />
  </sodipodi:namedview>
  <!---->
  <!---->
  <!---->
  <path
     d="m 168.58871,13.555725 v 0 q 4.91281,0 8.77938,2.183472 v 0 0 q 3.86656,2.137984 6.09553,6.050038 v 0 0 q 2.18347,3.866565 2.18347,8.961334 v 0 0 q 0,5.094768 -2.18347,9.006823 v 0 0 q -2.22897,3.912054 -6.09553,6.095527 v 0 0 q -3.86657,2.183472 -8.77938,2.183472 v 0 0 q -3.63912,0 -6.64139,-1.410159 v 0 0 q -3.04777,-1.410159 -5.14026,-4.094011 v 0 17.467778 h -6.14102 V 13.874148 h 5.86809 v 5.367703 0 q 2.047,-2.820319 5.18574,-4.230478 v 0 0 q 3.09325,-1.455648 6.86884,-1.455648 z m -0.50038,29.112963 v 0 q 3.22972,0 5.8226,-1.501137 v 0 0 q 2.54738,-1.501137 4.04852,-4.184988 v 0 0 q 1.50113,-2.729341 1.50113,-6.231994 v 0 0 q 0,-3.502653 -1.50113,-6.186505 v 0 0 q -1.50114,-2.72934 -4.04852,-4.184988 v 0 0 q -2.59288,-1.455648 -5.8226,-1.455648 v 0 0 q -3.18423,0 -5.7771,1.501137 v 0 0 q -2.59287,1.501137 -4.09401,4.139499 v 0 0 q -1.50114,2.683852 -1.50114,6.186505 v 0 0 q 0,3.502653 1.50114,6.231994 v 0 0 q 1.45565,2.683851 4.04852,4.184988 v 0 0 q 2.63836,1.501137 5.82259,1.501137 z m 56.54284,-11.736163 v 0 q 0,0.727824 -0.13647,1.865049 v 0 h -27.38438 v 0 q 0.59135,4.457923 3.91205,7.187263 v 0 0 q 3.36619,2.683851 8.32449,2.683851 v 0 0 q 6.05004,0 9.73465,-4.09401 v 0 l 3.36618,3.957543 v 0 q -2.27445,2.683852 -5.68612,4.094011 v 0 0 q -3.41168,1.410159 -7.59667,1.410159 v 0 0 q -5.3677,0 -9.5072,-2.228961 v 0 0 q -4.1395,-2.183473 -6.41395,-6.141016 v 0 0 q -2.22896,-3.957544 -2.22896,-8.915845 v 0 0 q 0,-4.912813 2.18347,-8.824867 v 0 0 q 2.18348,-3.957543 6.05004,-6.186505 v 0 0 q 3.86657,-2.183472 8.6884,-2.183472 v 0 0 q 4.82184,0 8.64291,2.183472 v 0 0 q 3.77559,2.228962 5.91357,6.186505 v 0 0 q 2.13799,3.912054 2.13799,9.006823 z M 207.9367,18.741472 v 0 q -4.41243,0 -7.36922,2.638362 v 0 0 q -2.95678,2.683851 -3.45716,7.005307 v 0 h 21.65276 v 0 q -0.50037,-4.230478 -3.45716,-6.959818 v 0 0 q -2.95679,-2.683851 -7.36922,-2.683851 z m 42.2138,22.517057 1.91054,4.412434 v 0 q -1.31919,1.137225 -3.3207,1.728582 v 0 0 q -1.95603,0.636846 -4.04852,0.636846 v 0 0 q -5.09477,0 -7.91509,-2.774829 v 0 0 q -2.77483,-2.729341 -2.77483,-7.824109 v 0 -18.514025 h -5.73161 v -5.04928 h 5.73161 V 6.5049293 h 6.09553 v 7.3692187 h 9.68916 v 5.04928 h -9.68916 v 18.28658 0 q 0,2.72934 1.36467,4.184988 v 0 0 q 1.36467,1.455648 3.91205,1.455648 v 0 0 q 2.82032,0 4.77635,-1.592115 z m 36.11827,6.777862 v 0 q -4.1395,0 -7.96058,-1.137225 v 0 0 q -3.82107,-1.091736 -6.00455,-2.820319 v 0 l 2.54739,-4.867323 v 0 q 2.22896,1.592115 5.41319,2.547384 v 0 0 q 3.18423,0.955269 6.45944,0.955269 v 0 0 q 8.00606,0 8.00606,-4.5489 v 0 0 q 0,-1.546626 -1.09173,-2.456407 v 0 0 q -1.04625,-0.864291 -2.68385,-1.273692 v 0 0 q -1.63761,-0.409401 -4.63988,-0.955269 v 0 0 q -4.04852,-0.636846 -6.6414,-1.455648 v 0 0 q -2.59287,-0.818802 -4.41243,-2.774829 v 0 0 q -1.86505,-2.001516 -1.86505,-5.549659 v 0 0 q 0,-4.594389 3.82108,-7.369219 v 0 0 q 3.82107,-2.774829 10.28051,-2.774829 v 0 0 q 3.36619,0 6.73237,0.818802 v 0 0 q 3.36619,0.864291 5.54966,2.228961 v 0 l -2.63836,4.867324 v 0 q -4.1395,-2.683851 -9.73465,-2.683851 v 0 0 q -3.86656,0 -5.91357,1.273692 v 0 0 q -2.047,1.273692 -2.047,3.366186 v 0 0 q 0,1.683093 1.13722,2.638362 v 0 0 q 1.18272,0.95527 2.86581,1.364671 v 0 0 q 1.68309,0.45489 4.73086,1.046247 v 0 0 q 4.09401,0.682335 6.5959,1.501137 v 0 0 q 2.5019,0.773313 4.27597,2.683851 v 0 0 q 1.81956,1.910538 1.81956,5.367703 v 0 0 q 0,4.594389 -3.95755,7.278241 v 0 0 q -3.91205,2.72934 -10.64442,2.72934 z m 47.5815,-34.162243 h 6.09552 V 47.62699 h -5.7771 v -5.094769 0 q -1.86505,2.638363 -4.86732,4.048522 v 0 0 q -3.04777,1.455648 -6.59591,1.455648 v 0 0 q -6.77786,0 -10.64443,-3.730099 v 0 0 q -3.86656,-3.730098 -3.86656,-11.008339 v 0 -19.423805 h 6.09552 v 18.74147 0 q 0,4.912813 2.36543,7.414708 v 0 0 q 2.36543,2.501895 6.73238,2.501895 v 0 0 q 4.86732,0 7.64215,-2.911296 v 0 0 q 2.82032,-2.956785 2.82032,-8.278999 v 0 z m 23.60879,5.686126 v 0 q 1.59212,-2.956786 4.73086,-4.457923 v 0 0 q 3.09325,-1.546626 7.55117,-1.546626 v 0 5.913571 0 q -0.50038,-0.04549 -1.36467,-0.04549 v 0 0 q -5.00379,0 -7.82411,2.956785 v 0 0 q -2.82032,2.956785 -2.82032,8.460955 v 0 16.785443 h -6.14101 V 13.874148 h 5.86808 z M 390.07468,5.0492811 v 0 q -5.45868,0 -5.45868,5.9135709 v 0 2.911296 h 9.78013 v 5.04928 h -9.68916 V 47.62699 h -6.09552 V 18.923428 h -5.73162 v -5.04928 h 5.73162 v -3.002274 0 q 0,-5.0037908 2.91129,-7.9605761 v 0 0 Q 384.47953,1.54e-6 389.75625,1.54e-6 v 0 0 q 2.04701,0 3.82108,0.50037905 v 0 0 q 1.77407,0.50037901 3.04776,1.45564821 v 0 l -1.81956,4.6853675 v 0 q -2.13798,-1.5921152 -4.73085,-1.5921152 z m 40.62168,25.8832439 v 0 q 0,0.727824 -0.13647,1.865049 v 0 h -27.38438 v 0 q 0.59136,4.457923 3.95754,7.187263 v 0 0 q 3.3207,2.683851 8.279,2.683851 v 0 0 q 6.05004,0 9.73465,-4.09401 v 0 l 3.41168,3.957543 v 0 q -2.31994,2.683852 -5.73162,4.094011 v 0 0 q -3.41167,1.410159 -7.59666,1.410159 v 0 0 q -5.36771,0 -9.50721,-2.228961 v 0 0 q -4.13949,-2.183473 -6.36846,-6.141016 v 0 0 q -2.27445,-3.957544 -2.27445,-8.915845 v 0 0 q 0,-4.912813 2.18348,-8.824867 v 0 0 q 2.22896,-3.957543 6.05003,-6.186505 v 0 0 q 3.86657,-2.183472 8.6884,-2.183472 v 0 0 q 4.86733,0 8.64291,2.183472 v 0 0 q 3.77559,2.228962 5.91358,6.186505 v 0 0 q 2.13798,3.912054 2.13798,9.006823 z M 414.00189,18.741472 v 0 q -4.36694,0 -7.32373,2.638362 v 0 0 q -2.95678,2.683851 -3.50265,7.005307 v 0 h 21.65277 v 0 q -0.50038,-4.230478 -3.45717,-6.959818 v 0 0 q -2.95678,-2.683851 -7.36922,-2.683851 z m 31.0235,0.818802 v 0 q 1.59212,-2.956786 4.73086,-4.457923 v 0 0 q 3.09325,-1.546626 7.55118,-1.546626 v 0 5.913571 0 q -0.50038,-0.04549 -1.36467,-0.04549 v 0 0 q -5.00379,0 -7.82411,2.956785 v 0 0 q -2.82032,2.956785 -2.82032,8.460955 v 0 16.785443 h -6.14102 V 13.874148 h 5.86808 z m 29.93177,28.476117 v 0 q -4.1395,0 -7.96058,-1.137225 v 0 0 q -3.82107,-1.091736 -5.95906,-2.820319 v 0 l 2.54739,-4.867323 v 0 q 2.22896,1.592115 5.41319,2.547384 v 0 0 q 3.18423,0.955269 6.41395,0.955269 v 0 0 q 8.00607,0 8.00607,-4.5489 v 0 0 q 0,-1.546626 -1.04625,-2.456407 v 0 0 q -1.09174,-0.864291 -2.72934,-1.273692 v 0 0 q -1.63761,-0.409401 -4.59439,-0.955269 v 0 0 q -4.09401,-0.636846 -6.68689,-1.455648 v 0 0 q -2.54738,-0.818802 -4.41243,-2.774829 v 0 0 q -1.86505,-2.001516 -1.86505,-5.549659 v 0 0 q 0,-4.594389 3.82108,-7.369219 v 0 0 q 3.82107,-2.774829 10.28051,-2.774829 v 0 0 q 3.36619,0 6.73238,0.818802 v 0 0 q 3.36618,0.864291 5.54965,2.228961 v 0 l -2.59287,4.867324 v 0 q -4.1395,-2.683851 -9.78013,-2.683851 v 0 0 q -3.86657,0 -5.91358,1.273692 v 0 0 q -2.047,1.273692 -2.047,3.366186 v 0 0 q 0,1.683093 1.18271,2.638362 v 0 0 q 1.13723,0.95527 2.82032,1.364671 v 0 0 q 1.6831,0.45489 4.73086,1.046247 v 0 0 q 4.09401,0.682335 6.5959,1.501137 v 0 0 q 2.5019,0.773313 4.32146,2.683851 v 0 0 q 1.77407,1.910538 1.77407,5.367703 v 0 0 q 0,4.594389 -3.91205,7.278241 v 0 0 q -3.91206,2.72934 -10.68992,2.72934 z"
     id="path2"
     style="fill:#2f190e;stroke-width:4.5489" />
  <!---->
  <g
     data-v-423bf9ae=""
     id="39418335-4563-4d50-95aa-89bbd9ca5816"
     transform="matrix(1.2066366,0,0,1.2066366,10.611156,-15.693404)"
     stroke="none"
     fill="#ff0000">
    <circle
       cx="35.735001"
       cy="49.639"
       r="4.3969998"
       id="circle5" />
    <circle
       cx="66.598999"
       cy="49.639"
       r="4.3969998"
       id="circle7" />
    <path
       d="m 43.107,60.675 c 0,4.168 7.546,7.55 7.546,7.55 0,0 7.55,-3.382 7.55,-7.55 0,-4.168 -15.096,-4.168 -15.096,0 z"
       id="path9" />
    <path
       d="m 98.236,69.06 -9.263,-1.48 a 29.861,29.861 0 0 0 1.438,-3.615 l 7.062,1.131 c 0.13,0.021 0.258,0.028 0.386,0.028 a 2.417,2.417 0 0 0 0.379,-4.803 l -6.675,-1.067 c 0.28,-1.726 0.427,-3.508 0.427,-5.343 0,-6.845 -4.561,-22.027 -6.425,-26.725 -1.431,-3.602 -2.868,-5.95 -4.531,-8.67 a 121.748,121.748 0 0 1 -2.514,-4.245 2.416,2.416 0 0 0 -1.964,-1.23 c -0.849,-0.062 -1.611,0.324 -2.097,0.987 -3.021,4.139 -7.708,8.75 -9.605,8.75 -0.775,0 -2.202,-0.176 -3.855,-0.38 -2.922,-0.36 -6.562,-0.81 -10.338,-0.81 -3.111,0 -6.12,0.394 -8.776,0.741 -1.843,0.241 -3.434,0.449 -4.533,0.449 -3.984,0 -8.543,-6.114 -9.827,-8.256 a 2.418,2.418 0 0 0 -2.058,-1.175 2.373,2.373 0 0 0 -2.072,1.145 c -2.846,4.602 -4.725,7.642 -6.769,12.961 -1.877,4.884 -6.276,19.777 -6.276,26.457 0,1.735 0.136,3.422 0.386,5.062 L 2.311,60.32 a 2.4178669,2.4178669 0 0 0 0.764,4.775 l 8.765,-1.402 a 29.993,29.993 0 0 0 1.403,3.62 L 2.307,69.06 a 2.4188543,2.4188543 0 1 0 0.764,4.777 l 12.746,-2.039 c 6.81,9.795 19.501,15.824 35.349,15.824 15.708,0 28.317,-5.926 35.172,-15.568 l 11.136,1.781 a 2.415,2.415 0 0 0 2.768,-2.005 2.42,2.42 0 0 0 -2.006,-2.77 z M 51.165,82.786 c -11.613,0 -23.289,-3.759 -30.068,-11.836 l 2.122,-0.338 a 2.4172942,2.4172942 0 0 0 -0.763,-4.774 l -4.327,0.693 A 24.89,24.89 0 0 1 16.598,62.93 l 6.621,-1.057 a 2.418,2.418 0 0 0 -0.763,-4.775 l -6.967,1.115 a 30.546,30.546 0 0 1 -0.31,-4.302 c 0,-5.423 3.863,-19.281 5.955,-24.725 1.408,-3.665 2.707,-6.117 4.445,-9.015 2.48,3.151 6.775,7.44 11.767,7.44 1.414,0 3.149,-0.227 5.16,-0.489 2.508,-0.328 5.352,-0.7 8.15,-0.7 3.479,0 6.953,0.428 9.746,0.772 1.886,0.232 3.375,0.417 4.446,0.417 3.909,0 8.436,-4.511 11.267,-7.873 0.271,0.448 0.534,0.88 0.793,1.301 1.609,2.635 2.883,4.715 4.16,7.93 2.081,5.247 6.083,19.387 6.083,24.941 0,1.6 -0.129,3.12 -0.352,4.58 l -8.715,-1.394 a 2.408,2.408 0 0 0 -2.769,2.005 2.42,2.42 0 0 0 2.004,2.769 l 8.316,1.329 a 24.754,24.754 0 0 1 -1.567,3.592 l -5.984,-0.957 c -1.332,-0.212 -2.559,0.687 -2.77,2.004 -0.211,1.317 0.688,2.558 2.003,2.769 l 3.694,0.592 C 74.207,79.103 62.656,82.786 51.165,82.786 Z"
       id="path11" />
  </g>
  <!---->
  <text
     xml:space="preserve"
     style="font-style:normal;font-weight:normal;font-size:20px;line-height:1.25;font-family:sans-serif;fill:#000000;fill-opacity:1;stroke:none;stroke-width:1"
     x="194.23285"
     y="83.858299"
     id="text27"><tspan
       sodipodi:role="line"
       id="tspan25"
       x="194.23285"
       y="83.858299"
       style="font-style:normal;font-variant:normal;font-weight:bold;font-stretch:normal;font-size:20px;font-family:Purisa;-inkscape-font-specification:'Purisa Bold';stroke-width:1">airbnb, but for pets</tspan></text>
  <path
     style="fill:#000000;fill-opacity:1;stroke:#000000;stroke-width:1;stroke-opacity:1"
     id="path64"
     d="m 185.17883,80.068417 c -9.16115,-0.721488 -18.37257,-0.379903 -27.54507,-0.06562 -1.42845,0.06147 -2.8569,0.122928 -4.28536,0.184392 0,0 -2.7971,-1.524249 -2.7971,-1.524249 v 0 c 1.45875,-0.04561 2.91749,-0.09122 4.37622,-0.136823 9.03211,-0.260179 18.08168,-0.590137 27.11406,-0.210227 0,0 3.13725,1.752523 3.13725,1.752523 z" />
  <path
     style="fill:#000000;fill-opacity:1;stroke:#000000;stroke-width:1;stroke-opacity:1"
     id="path64-1"
     d="m 453.48166,80.068417 c 9.16114,-0.721489 18.37256,-0.379903 27.54506,-0.06562 1.42845,0.06147 2.8569,0.122928 4.28536,0.184392 0,0 2.79711,-1.524249 2.79711,-1.524249 v 0 c -1.45876,-0.04561 -2.91749,-0.09122 -4.37623,-0.136824 -9.03211,-0.26018 -18.08168,-0.590137 -27.11406,-0.210227 0,0 -3.13724,1.752524 -3.13724,1.752524 z" />
</svg>
