<?xml version="1.0" encoding="UTF-8" standalone="no"?><!DOCTYPE svg PUBLIC "-//W3C//DTD SVG 1.1//EN" "http://www.w3.org/Graphics/SVG/1.1/DTD/svg11.dtd"><svg width="100%" height="100%" viewBox="0 0 123 90" version="1.1" xmlns="http://www.w3.org/2000/svg" xmlns:xlink="http://www.w3.org/1999/xlink" xml:space="preserve" xmlns:serif="http://www.serif.com/" style="fill-rule:evenodd;clip-rule:evenodd;stroke-linejoin:round;stroke-miterlimit:2;"><g id="_39418335-4563-4d50-95aa-89bbd9ca5816" serif:id="39418335-4563-4d50-95aa-89bbd9ca5816"><circle cx="43.73" cy="44.203" r="5.306" style="fill:#f00;"/><circle cx="80.972" cy="44.203" r="5.306" style="fill:#f00;"/><path d="M52.626,57.519c0,5.03 9.105,9.11 9.105,9.11c0,0 9.11,-4.08 9.11,-9.11c0,-5.029 -18.215,-5.029 -18.215,0Z" style="fill:#f00;fill-rule:nonzero;"/><path d="M119.146,67.637l-11.177,-1.786c0.673,-1.415 1.252,-2.872 1.735,-4.362l8.522,1.365c0.157,0.025 0.311,0.034 0.465,0.034c1.597,-0.005 2.909,-1.32 2.909,-2.917c0,-1.425 -1.045,-2.651 -2.451,-2.879l-8.055,-1.287c0.338,-2.083 0.516,-4.233 0.516,-6.447c0,-8.26 -5.504,-26.579 -7.753,-32.248c-1.727,-4.346 -3.461,-7.179 -5.467,-10.461c-1.046,-1.687 -2.057,-3.395 -3.034,-5.122c-0.485,-0.866 -1.379,-1.426 -2.37,-1.485c-1.024,-0.074 -1.943,0.391 -2.53,1.191c-3.645,4.995 -9.301,10.558 -11.59,10.558c-0.935,0 -2.657,-0.212 -4.651,-0.458c-3.526,-0.435 -7.918,-0.978 -12.474,-0.978c-3.754,0 -7.385,0.476 -10.59,0.895c-2.224,0.29 -4.143,0.541 -5.47,0.541c-4.807,0 -10.308,-7.377 -11.857,-9.962c-0.523,-0.872 -1.466,-1.411 -2.483,-1.417c-1.019,-0.018 -1.973,0.509 -2.501,1.381c-3.434,5.553 -5.701,9.221 -8.167,15.639c-2.265,5.894 -7.573,23.864 -7.573,31.924c0,2.094 0.164,4.129 0.466,6.108l-10.166,1.627c-1.41,0.225 -2.457,1.454 -2.457,2.881c0,1.6 1.317,2.917 2.918,2.917c0.154,0 0.308,-0.012 0.461,-0.036l10.576,-1.692c0.469,1.491 1.035,2.95 1.693,4.368l-13.196,2.108c-1.41,0.225 -2.458,1.454 -2.458,2.882c0,1.601 1.318,2.919 2.919,2.919c0.154,0 0.308,-0.013 0.461,-0.037l15.38,-2.46c8.217,11.819 23.53,19.094 42.653,19.094c18.954,0 34.168,-7.151 42.44,-18.785l13.437,2.149c0.153,0.024 0.307,0.036 0.462,0.036c1.426,0 2.654,-1.047 2.878,-2.456c0.252,-1.58 -0.841,-3.088 -2.421,-3.342Zm-56.797,16.562c-14.013,0 -28.102,-4.536 -36.281,-14.282l2.56,-0.407c1.409,-0.226 2.457,-1.454 2.457,-2.881c0,-1.6 -1.317,-2.916 -2.917,-2.916c-0.154,0 -0.308,0.012 -0.461,0.036l-5.221,0.836c-0.729,-1.397 -1.346,-2.85 -1.847,-4.345l7.989,-1.275c1.392,-0.242 2.419,-1.462 2.419,-2.875c0,-1.6 -1.317,-2.918 -2.917,-2.918c-0.142,0 -0.283,0.011 -0.423,0.031l-8.406,1.346c-0.247,-1.72 -0.372,-3.454 -0.374,-5.191c0,-6.544 4.661,-23.266 7.185,-29.835c1.699,-4.422 3.267,-7.381 5.364,-10.877c2.992,3.802 8.175,8.977 14.198,8.977c1.706,0 3.8,-0.274 6.226,-0.59c3.027,-0.396 6.458,-0.845 9.835,-0.845c4.197,0 8.389,0.517 11.759,0.932c2.276,0.28 4.073,0.503 5.365,0.503c4.717,0 10.179,-5.443 13.595,-9.5c0.327,0.541 0.645,1.062 0.957,1.57c1.942,3.18 3.479,5.689 5.02,9.569c2.511,6.331 7.34,23.393 7.34,30.094c0,1.931 -0.156,3.765 -0.425,5.527l-10.516,-1.682c-0.155,-0.026 -0.313,-0.039 -0.47,-0.039c-1.426,0 -2.651,1.05 -2.871,2.458c-0.251,1.579 0.839,3.086 2.418,3.341l10.034,1.604c-0.514,1.492 -1.147,2.942 -1.89,4.334l-7.221,-1.155c-1.607,-0.255 -3.088,0.829 -3.342,2.418c-0.255,1.59 0.83,3.087 2.417,3.342l4.457,0.714c-8.21,9.537 -22.148,13.981 -36.013,13.981Z" style="fill:#f00;fill-rule:nonzero;"/></g></svg>