<svg data-v-423bf9ae="" xmlns="http://www.w3.org/2000/svg" viewBox="0 0 480 90" class="iconLeftSlogan"><!----><!----><!----><g data-v-423bf9ae="" id="a78ec44b-0c8b-416f-9913-82905cd36742" fill="black" transform="matrix(4.548900498152012,0,0,4.548900498152012,134.88894321090567,-14.01061223358031)"><path d="M5.21 6.06L5.21 6.06Q6.29 6.06 7.14 6.54L7.14 6.54L7.14 6.54Q7.99 7.01 8.48 7.87L8.48 7.87L8.48 7.87Q8.96 8.72 8.96 9.84L8.96 9.84L8.96 9.84Q8.96 10.96 8.48 11.82L8.48 11.82L8.48 11.82Q7.99 12.68 7.14 13.16L7.14 13.16L7.14 13.16Q6.29 13.64 5.21 13.64L5.21 13.64L5.21 13.64Q4.41 13.64 3.75 13.33L3.75 13.33L3.75 13.33Q3.08 13.02 2.62 12.43L2.62 12.43L2.62 16.27L1.27 16.27L1.27 6.13L2.56 6.13L2.56 7.31L2.56 7.31Q3.01 6.69 3.70 6.38L3.70 6.38L3.70 6.38Q4.38 6.06 5.21 6.06L5.21 6.06ZM5.10 12.46L5.10 12.46Q5.81 12.46 6.38 12.13L6.38 12.13L6.38 12.13Q6.94 11.80 7.27 11.21L7.27 11.21L7.27 11.21Q7.60 10.61 7.60 9.84L7.60 9.84L7.60 9.84Q7.60 9.07 7.27 8.48L7.27 8.48L7.27 8.48Q6.94 7.88 6.38 7.56L6.38 7.56L6.38 7.56Q5.81 7.24 5.10 7.24L5.10 7.24L5.10 7.24Q4.40 7.24 3.83 7.57L3.83 7.57L3.83 7.57Q3.26 7.90 2.93 8.48L2.93 8.48L2.93 8.48Q2.60 9.07 2.60 9.84L2.60 9.84L2.60 9.84Q2.60 10.61 2.93 11.21L2.93 11.21L2.93 11.21Q3.25 11.80 3.82 12.13L3.82 12.13L3.82 12.13Q4.40 12.46 5.10 12.46L5.10 12.46ZM17.53 9.88L17.53 9.88Q17.53 10.04 17.50 10.29L17.50 10.29L11.48 10.29L11.48 10.29Q11.61 11.27 12.34 11.87L12.34 11.87L12.34 11.87Q13.08 12.46 14.17 12.46L14.17 12.46L14.17 12.46Q15.50 12.46 16.31 11.56L16.31 11.56L17.05 12.43L17.05 12.43Q16.55 13.02 15.80 13.33L15.80 13.33L15.80 13.33Q15.05 13.64 14.13 13.64L14.13 13.64L14.13 13.64Q12.95 13.64 12.04 13.15L12.04 13.15L12.04 13.15Q11.13 12.67 10.63 11.80L10.63 11.80L10.63 11.80Q10.14 10.93 10.14 9.84L10.14 9.84L10.14 9.84Q10.14 8.76 10.62 7.90L10.62 7.90L10.62 7.90Q11.10 7.03 11.95 6.54L11.95 6.54L11.95 6.54Q12.80 6.06 13.86 6.06L13.86 6.06L13.86 6.06Q14.92 6.06 15.76 6.54L15.76 6.54L15.76 6.54Q16.59 7.03 17.06 7.90L17.06 7.90L17.06 7.90Q17.53 8.76 17.53 9.88L17.53 9.88ZM13.86 7.20L13.86 7.20Q12.89 7.20 12.24 7.78L12.24 7.78L12.24 7.78Q11.59 8.37 11.48 9.32L11.48 9.32L16.24 9.32L16.24 9.32Q16.13 8.39 15.48 7.79L15.48 7.79L15.48 7.79Q14.83 7.20 13.86 7.20L13.86 7.20ZM23.14 12.15L23.56 13.12L23.56 13.12Q23.27 13.37 22.83 13.50L22.83 13.50L22.83 13.50Q22.40 13.64 21.94 13.64L21.94 13.64L21.94 13.64Q20.82 13.64 20.20 13.03L20.20 13.03L20.20 13.03Q19.59 12.43 19.59 11.31L19.59 11.31L19.59 7.24L18.33 7.24L18.33 6.13L19.59 6.13L19.59 4.51L20.93 4.51L20.93 6.13L23.06 6.13L23.06 7.24L20.93 7.24L20.93 11.26L20.93 11.26Q20.93 11.86 21.23 12.18L21.23 12.18L21.23 12.18Q21.53 12.50 22.09 12.50L22.09 12.50L22.09 12.50Q22.71 12.50 23.14 12.15L23.14 12.15ZM31.08 13.64L31.08 13.64Q30.17 13.64 29.33 13.39L29.33 13.39L29.33 13.39Q28.49 13.15 28.01 12.77L28.01 12.77L28.57 11.70L28.57 11.70Q29.06 12.05 29.76 12.26L29.76 12.26L29.76 12.26Q30.46 12.47 31.18 12.47L31.18 12.47L31.18 12.47Q32.94 12.47 32.94 11.47L32.94 11.47L32.94 11.47Q32.94 11.13 32.70 10.93L32.70 10.93L32.70 10.93Q32.47 10.74 32.11 10.65L32.11 10.65L32.11 10.65Q31.75 10.56 31.09 10.44L31.09 10.44L31.09 10.44Q30.20 10.30 29.63 10.12L29.63 10.12L29.63 10.12Q29.06 9.94 28.66 9.51L28.66 9.51L28.66 9.51Q28.25 9.07 28.25 8.29L28.25 8.29L28.25 8.29Q28.25 7.28 29.09 6.67L29.09 6.67L29.09 6.67Q29.93 6.06 31.35 6.06L31.35 6.06L31.35 6.06Q32.09 6.06 32.83 6.24L32.83 6.24L32.83 6.24Q33.57 6.43 34.05 6.73L34.05 6.73L33.47 7.80L33.47 7.80Q32.56 7.21 31.33 7.21L31.33 7.21L31.33 7.21Q30.48 7.21 30.03 7.49L30.03 7.49L30.03 7.49Q29.58 7.77 29.58 8.23L29.58 8.23L29.58 8.23Q29.58 8.60 29.83 8.81L29.83 8.81L29.83 8.81Q30.09 9.02 30.46 9.11L30.46 9.11L30.46 9.11Q30.83 9.21 31.50 9.34L31.50 9.34L31.50 9.34Q32.40 9.49 32.95 9.67L32.95 9.67L32.95 9.67Q33.50 9.84 33.89 10.26L33.89 10.26L33.89 10.26Q34.29 10.68 34.29 11.44L34.29 11.44L34.29 11.44Q34.29 12.45 33.42 13.04L33.42 13.04L33.42 13.04Q32.56 13.64 31.08 13.64L31.08 13.64ZM41.54 6.13L42.88 6.13L42.88 13.55L41.61 13.55L41.61 12.43L41.61 12.43Q41.20 13.01 40.54 13.32L40.54 13.32L40.54 13.32Q39.87 13.64 39.09 13.64L39.09 13.64L39.09 13.64Q37.60 13.64 36.75 12.82L36.75 12.82L36.75 12.82Q35.90 12.00 35.90 10.40L35.90 10.40L35.90 6.13L37.24 6.13L37.24 10.25L37.24 10.25Q37.24 11.33 37.76 11.88L37.76 11.88L37.76 11.88Q38.28 12.43 39.24 12.43L39.24 12.43L39.24 12.43Q40.31 12.43 40.92 11.79L40.92 11.79L40.92 11.79Q41.54 11.14 41.54 9.97L41.54 9.97L41.54 6.13ZM46.73 7.38L46.73 7.38Q47.08 6.73 47.77 6.40L47.77 6.40L47.77 6.40Q48.45 6.06 49.43 6.06L49.43 6.06L49.43 7.36L49.43 7.36Q49.32 7.35 49.13 7.35L49.13 7.35L49.13 7.35Q48.03 7.35 47.41 8.00L47.41 8.00L47.41 8.00Q46.79 8.65 46.79 9.86L46.79 9.86L46.79 13.55L45.44 13.55L45.44 6.13L46.73 6.13L46.73 7.38ZM53.90 4.19L53.90 4.19Q52.70 4.19 52.70 5.49L52.70 5.49L52.70 6.13L54.85 6.13L54.85 7.24L52.72 7.24L52.72 13.55L51.38 13.55L51.38 7.24L50.12 7.24L50.12 6.13L51.38 6.13L51.38 5.47L51.38 5.47Q51.38 4.37 52.02 3.72L52.02 3.72L52.02 3.72Q52.67 3.08 53.83 3.08L53.83 3.08L53.83 3.08Q54.28 3.08 54.67 3.19L54.67 3.19L54.67 3.19Q55.06 3.30 55.34 3.51L55.34 3.51L54.94 4.54L54.94 4.54Q54.47 4.19 53.90 4.19L53.90 4.19ZM62.83 9.88L62.83 9.88Q62.83 10.04 62.80 10.29L62.80 10.29L56.78 10.29L56.78 10.29Q56.91 11.27 57.65 11.87L57.65 11.87L57.65 11.87Q58.38 12.46 59.47 12.46L59.47 12.46L59.47 12.46Q60.80 12.46 61.61 11.56L61.61 11.56L62.36 12.43L62.36 12.43Q61.85 13.02 61.10 13.33L61.10 13.33L61.10 13.33Q60.35 13.64 59.43 13.64L59.43 13.64L59.43 13.64Q58.25 13.64 57.34 13.15L57.34 13.15L57.34 13.15Q56.43 12.67 55.94 11.80L55.94 11.80L55.94 11.80Q55.44 10.93 55.44 9.84L55.44 9.84L55.44 9.84Q55.44 8.76 55.92 7.90L55.92 7.90L55.92 7.90Q56.41 7.03 57.25 6.54L57.25 6.54L57.25 6.54Q58.10 6.06 59.16 6.06L59.16 6.06L59.16 6.06Q60.23 6.06 61.06 6.54L61.06 6.54L61.06 6.54Q61.89 7.03 62.36 7.90L62.36 7.90L62.36 7.90Q62.83 8.76 62.83 9.88L62.83 9.88ZM59.16 7.20L59.16 7.20Q58.20 7.20 57.55 7.78L57.55 7.78L57.55 7.78Q56.90 8.37 56.78 9.32L56.78 9.32L61.54 9.32L61.54 9.32Q61.43 8.39 60.78 7.79L60.78 7.79L60.78 7.79Q60.13 7.20 59.16 7.20L59.16 7.20ZM65.98 7.38L65.98 7.38Q66.33 6.73 67.02 6.40L67.02 6.40L67.02 6.40Q67.70 6.06 68.68 6.06L68.68 6.06L68.68 7.36L68.68 7.36Q68.57 7.35 68.38 7.35L68.38 7.35L68.38 7.35Q67.28 7.35 66.66 8.00L66.66 8.00L66.66 8.00Q66.04 8.65 66.04 9.86L66.04 9.86L66.04 13.55L64.69 13.55L64.69 6.13L65.98 6.13L65.98 7.38ZM72.56 13.64L72.56 13.64Q71.65 13.64 70.81 13.39L70.81 13.39L70.81 13.39Q69.97 13.15 69.50 12.77L69.50 12.77L70.06 11.70L70.06 11.70Q70.55 12.05 71.25 12.26L71.25 12.26L71.25 12.26Q71.95 12.47 72.66 12.47L72.66 12.47L72.66 12.47Q74.42 12.47 74.42 11.47L74.42 11.47L74.42 11.47Q74.42 11.13 74.19 10.93L74.19 10.93L74.19 10.93Q73.95 10.74 73.59 10.65L73.59 10.65L73.59 10.65Q73.23 10.56 72.58 10.44L72.58 10.44L72.58 10.44Q71.68 10.30 71.11 10.12L71.11 10.12L71.11 10.12Q70.55 9.94 70.14 9.51L70.14 9.51L70.14 9.51Q69.73 9.07 69.73 8.29L69.73 8.29L69.73 8.29Q69.73 7.28 70.57 6.67L70.57 6.67L70.57 6.67Q71.41 6.06 72.83 6.06L72.83 6.06L72.83 6.06Q73.57 6.06 74.31 6.24L74.31 6.24L74.31 6.24Q75.05 6.43 75.53 6.73L75.53 6.73L74.96 7.80L74.96 7.80Q74.05 7.21 72.81 7.21L72.81 7.21L72.81 7.21Q71.96 7.21 71.51 7.49L71.51 7.49L71.51 7.49Q71.06 7.77 71.06 8.23L71.06 8.23L71.06 8.23Q71.06 8.60 71.32 8.81L71.32 8.81L71.32 8.81Q71.57 9.02 71.94 9.11L71.94 9.11L71.94 9.11Q72.31 9.21 72.98 9.34L72.98 9.34L72.98 9.34Q73.88 9.49 74.43 9.67L74.43 9.67L74.43 9.67Q74.98 9.84 75.38 10.26L75.38 10.26L75.38 10.26Q75.77 10.68 75.77 11.44L75.77 11.44L75.77 11.44Q75.77 12.45 74.91 13.04L74.91 13.04L74.91 13.04Q74.05 13.64 72.56 13.64L72.56 13.64Z"></path></g><!----><g data-v-423bf9ae="" id="60daa375-fdfc-4173-acdd-cca2f940d1c0" transform="matrix(1.2066365994935524,0,0,1.2066365994935524,0.6111558255332312,-15.693404190130849)" stroke="none" fill="black"><circle cx="35.735" cy="49.639" r="4.397"></circle><circle cx="66.599" cy="49.639" r="4.397"></circle><path d="M43.107 60.675c0 4.168 7.546 7.55 7.546 7.55s7.55-3.382 7.55-7.55-15.096-4.168-15.096 0z"></path><path d="M98.236 69.06l-9.263-1.48a29.861 29.861 0 0 0 1.438-3.615l7.062 1.131c.13.021.258.028.386.028a2.417 2.417 0 0 0 .379-4.803l-6.675-1.067c.28-1.726.427-3.508.427-5.343 0-6.845-4.561-22.027-6.425-26.725-1.431-3.602-2.868-5.95-4.531-8.67a121.748 121.748 0 0 1-2.514-4.245 2.416 2.416 0 0 0-1.964-1.23c-.849-.062-1.611.324-2.097.987-3.021 4.139-7.708 8.75-9.605 8.75-.775 0-2.202-.176-3.855-.38-2.922-.36-6.562-.81-10.338-.81-3.111 0-6.12.394-8.776.741-1.843.241-3.434.449-4.533.449-3.984 0-8.543-6.114-9.827-8.256a2.418 2.418 0 0 0-2.058-1.175 2.373 2.373 0 0 0-2.072 1.145c-2.846 4.602-4.725 7.642-6.769 12.961-1.877 4.884-6.276 19.777-6.276 26.457 0 1.735.136 3.422.386 5.062L2.311 60.32a2.417 2.417 0 0 0 .764 4.775l8.765-1.402a29.993 29.993 0 0 0 1.403 3.62L2.307 69.06a2.418 2.418 0 1 0 .764 4.777l12.746-2.039c6.81 9.795 19.501 15.824 35.349 15.824 15.708 0 28.317-5.926 35.172-15.568l11.136 1.781a2.415 2.415 0 0 0 2.768-2.005 2.42 2.42 0 0 0-2.006-2.77zM51.165 82.786c-11.613 0-23.289-3.759-30.068-11.836l2.122-.338a2.417 2.417 0 0 0-.763-4.774l-4.327.693a24.89 24.89 0 0 1-1.531-3.601l6.621-1.057a2.418 2.418 0 0 0-.763-4.775l-6.967 1.115a30.546 30.546 0 0 1-.31-4.302c0-5.423 3.863-19.281 5.955-24.725 1.408-3.665 2.707-6.117 4.445-9.015 2.48 3.151 6.775 7.44 11.767 7.44 1.414 0 3.149-.227 5.16-.489 2.508-.328 5.352-.7 8.15-.7 3.479 0 6.953.428 9.746.772 1.886.232 3.375.417 4.446.417 3.909 0 8.436-4.511 11.267-7.873.271.448.534.88.793 1.301 1.609 2.635 2.883 4.715 4.16 7.93 2.081 5.247 6.083 19.387 6.083 24.941 0 1.6-.129 3.12-.352 4.58l-8.715-1.394a2.408 2.408 0 0 0-2.769 2.005 2.42 2.42 0 0 0 2.004 2.769l8.316 1.329a24.754 24.754 0 0 1-1.567 3.592l-5.984-.957c-1.332-.212-2.559.687-2.77 2.004s.688 2.558 2.003 2.769l3.694.592c-6.804 7.904-18.355 11.587-29.846 11.587z"></path></g><!----><g data-v-423bf9ae="" id="704a95bf-552d-4b09-b394-b7205aaaa9c1" fill="black" transform="matrix(1.0297570629033574,0,0,1.0297570629033574,140.29533386199915,54.14068225545623)"><path d="M4.40 6.98L3.04 10.75L5.72 10.75L4.40 6.98ZM3.08 14.40L0.36 14.40L0.39 14.11L1.36 13.90L4.35 5.82L4.72 5.73L7.55 13.95L8.46 14.08L8.40 14.39L5.61 14.39L5.67 14.10L6.80 13.90L5.85 11.13L2.90 11.13L1.89 13.95L3.14 14.08L3.08 14.40ZM17.31 6.33L16.13 6.16L16.17 5.89L19.29 5.89L19.24 6.16L18.05 6.32L18.05 13.95L19.37 14.08L19.30 14.40L16.19 14.40L16.23 14.11L17.31 13.90L17.31 6.33ZM28.90 6.18L28.90 10.11L30.45 10.11L30.45 10.11Q31.13 9.86 31.59 9.28L31.59 9.28L31.59 9.28Q32.05 8.70 32.05 8.02L32.05 8.02L32.05 8.02Q32.05 7.11 31.43 6.63L31.43 6.63L31.43 6.63Q30.81 6.15 29.72 6.15L29.72 6.15L28.90 6.18ZM30.27 14.40L27.08 14.40L27.13 14.11L28.19 13.90L28.19 6.51L27.10 6.37L27.16 6.13L27.16 6.13Q28.98 5.83 30.06 5.83L30.06 5.83L30.06 5.83Q30.83 5.83 31.44 6.05L31.44 6.05L31.44 6.05Q32.05 6.27 32.42 6.73L32.42 6.73L32.42 6.73Q32.80 7.19 32.80 7.83L32.80 7.83L32.80 7.83Q32.80 8.57 32.37 9.14L32.37 9.14L32.37 9.14Q31.94 9.72 30.91 10.23L30.91 10.23L30.91 10.23L32.23 12.19L32.23 12.19Q32.94 13.23 33.29 13.58L33.29 13.58L33.29 13.58Q33.63 13.92 34.02 14.05L34.02 14.05L34.34 14.16L34.30 14.42L34.30 14.42Q34.01 14.52 33.67 14.52L33.67 14.52L33.67 14.52Q33.38 14.52 33.13 14.40L33.13 14.40L33.13 14.40Q32.87 14.28 32.63 14.01L32.63 14.01L32.63 14.01Q32.39 13.75 32.20 13.48L32.20 13.48L32.20 13.48Q32.02 13.22 31.75 12.77L31.75 12.77L30.36 10.49L28.90 10.49L28.90 13.95L30.34 14.08L30.27 14.40ZM43.93 6.15L43.93 9.75L46.05 9.75L46.05 9.75Q46.50 9.45 46.84 9.01L46.84 9.01L46.84 9.01Q47.17 8.57 47.17 8.02L47.17 8.02L47.17 8.02Q47.17 7.08 46.54 6.59L46.54 6.59L46.54 6.59Q45.90 6.11 44.76 6.11L44.76 6.11L44.76 6.11Q44.11 6.11 43.93 6.15L43.93 6.15ZM43.93 10.08L43.93 14.03L45.61 14.03L45.61 14.03Q46.25 14.03 46.70 13.85L46.70 13.85L46.70 13.85Q47.16 13.68 47.40 13.38L47.40 13.38L47.40 13.38Q47.65 13.08 47.76 12.74L47.76 12.74L47.76 12.74Q47.87 12.41 47.87 12.02L47.87 12.02L47.87 12.02Q47.87 11.68 47.76 11.36L47.76 11.36L47.76 11.36Q47.65 11.04 47.41 10.74L47.41 10.74L47.41 10.74Q47.17 10.45 46.72 10.26L46.72 10.26L46.72 10.26Q46.28 10.08 45.68 10.08L45.68 10.08L43.93 10.08ZM44.93 14.40L42.03 14.40L42.08 14.11L43.24 13.90L43.24 6.51L42.06 6.36L42.13 6.12L42.13 6.12Q42.25 6.10 42.69 6.03L42.69 6.03L42.69 6.03Q43.13 5.96 43.30 5.94L43.30 5.94L43.30 5.94Q43.48 5.91 43.83 5.87L43.83 5.87L43.83 5.87Q44.19 5.83 44.50 5.82L44.50 5.82L44.50 5.82Q44.81 5.80 45.16 5.80L45.16 5.80L45.16 5.80Q46.44 5.80 47.16 6.38L47.16 6.38L47.16 6.38Q47.87 6.96 47.87 7.79L47.87 7.79L47.87 7.79Q47.87 8.98 46.46 9.76L46.46 9.76L46.46 9.80L46.46 9.80Q47.45 9.86 48.02 10.46L48.02 10.46L48.02 10.46Q48.59 11.05 48.59 11.80L48.59 11.80L48.59 11.80Q48.59 12.22 48.49 12.58L48.49 12.58L48.49 12.58Q48.38 12.95 48.12 13.29L48.12 13.29L48.12 13.29Q47.86 13.63 47.46 13.87L47.46 13.87L47.46 13.87Q47.05 14.11 46.41 14.25L46.41 14.25L46.41 14.25Q45.76 14.40 44.93 14.40L44.93 14.40ZM57.54 6.36L56.28 6.14L56.33 5.89L58.41 5.89L63.13 13.17L63.13 6.33L61.88 6.16L61.92 5.89L64.82 5.89L64.76 6.16L63.63 6.32L63.63 14.44L63.26 14.52L58.05 6.65L58.05 13.95L59.31 14.08L59.24 14.40L56.36 14.40L56.40 14.11L57.54 13.90L57.54 6.36ZM74.40 6.15L74.40 9.75L76.51 9.75L76.51 9.75Q76.97 9.45 77.31 9.01L77.31 9.01L77.31 9.01Q77.64 8.57 77.64 8.02L77.64 8.02L77.64 8.02Q77.64 7.08 77.00 6.59L77.00 6.59L77.00 6.59Q76.36 6.11 75.23 6.11L75.23 6.11L75.23 6.11Q74.58 6.11 74.40 6.15L74.40 6.15ZM74.40 10.08L74.40 14.03L76.08 14.03L76.08 14.03Q76.71 14.03 77.17 13.85L77.17 13.85L77.17 13.85Q77.63 13.68 77.87 13.38L77.87 13.38L77.87 13.38Q78.11 13.08 78.22 12.74L78.22 12.74L78.22 12.74Q78.33 12.41 78.33 12.02L78.33 12.02L78.33 12.02Q78.33 11.68 78.22 11.36L78.22 11.36L78.22 11.36Q78.11 11.04 77.88 10.74L77.88 10.74L77.88 10.74Q77.64 10.45 77.19 10.26L77.19 10.26L77.19 10.26Q76.75 10.08 76.15 10.08L76.15 10.08L74.40 10.08ZM75.40 14.40L72.50 14.40L72.55 14.11L73.71 13.90L73.71 6.51L72.53 6.36L72.60 6.12L72.60 6.12Q72.72 6.10 73.16 6.03L73.16 6.03L73.16 6.03Q73.60 5.96 73.77 5.94L73.77 5.94L73.77 5.94Q73.94 5.91 74.30 5.87L74.30 5.87L74.30 5.87Q74.66 5.83 74.97 5.82L74.97 5.82L74.97 5.82Q75.28 5.80 75.63 5.80L75.63 5.80L75.63 5.80Q76.91 5.80 77.63 6.38L77.63 6.38L77.63 6.38Q78.34 6.96 78.34 7.79L78.34 7.79L78.34 7.79Q78.34 8.98 76.92 9.76L76.92 9.76L76.92 9.80L76.92 9.80Q77.92 9.86 78.49 10.46L78.49 10.46L78.49 10.46Q79.06 11.05 79.06 11.80L79.06 11.80L79.06 11.80Q79.06 12.22 78.96 12.58L78.96 12.58L78.96 12.58Q78.85 12.95 78.59 13.29L78.59 13.29L78.59 13.29Q78.33 13.63 77.92 13.87L77.92 13.87L77.92 13.87Q77.52 14.11 76.87 14.25L76.87 14.25L76.87 14.25Q76.23 14.40 75.40 14.40L75.40 14.40ZM86.88 16.32L86.80 16.01L86.80 16.01Q87.49 15.74 87.75 15.40L87.75 15.40L87.75 15.40Q88.01 15.06 88.01 14.60L88.01 14.60L88.01 14.60Q88.01 14.16 87.80 13.90L87.80 13.90L87.80 13.90Q87.58 13.63 87.27 13.63L87.27 13.63L87.27 13.63Q87.14 13.63 87.08 13.66L87.08 13.66L87.08 13.66Q87.06 13.60 87.06 13.53L87.06 13.53L87.06 13.53Q87.06 13.25 87.24 13.08L87.24 13.08L87.24 13.08Q87.42 12.91 87.72 12.91L87.72 12.91L87.72 12.91Q88.13 12.91 88.41 13.28L88.41 13.28L88.41 13.28Q88.70 13.66 88.70 14.33L88.70 14.33L88.70 14.33Q88.70 14.59 88.61 14.85L88.61 14.85L88.61 14.85Q88.52 15.11 88.33 15.39L88.33 15.39L88.33 15.39Q88.14 15.67 87.76 15.91L87.76 15.91L87.76 15.91Q87.39 16.15 86.88 16.32L86.88 16.32ZM108.27 6.15L108.27 9.75L110.39 9.75L110.39 9.75Q110.84 9.45 111.18 9.01L111.18 9.01L111.18 9.01Q111.51 8.57 111.51 8.02L111.51 8.02L111.51 8.02Q111.51 7.08 110.88 6.59L110.88 6.59L110.88 6.59Q110.24 6.11 109.10 6.11L109.10 6.11L109.10 6.11Q108.45 6.11 108.27 6.15L108.27 6.15ZM108.27 10.08L108.27 14.03L109.95 14.03L109.95 14.03Q110.58 14.03 111.04 13.85L111.04 13.85L111.04 13.85Q111.50 13.68 111.74 13.38L111.74 13.38L111.74 13.38Q111.99 13.08 112.10 12.74L112.10 12.74L112.10 12.74Q112.21 12.41 112.21 12.02L112.21 12.02L112.21 12.02Q112.21 11.68 112.10 11.36L112.10 11.36L112.10 11.36Q111.99 11.04 111.75 10.74L111.75 10.74L111.75 10.74Q111.51 10.45 111.06 10.26L111.06 10.26L111.06 10.26Q110.62 10.08 110.02 10.08L110.02 10.08L108.27 10.08ZM109.27 14.40L106.37 14.40L106.42 14.11L107.58 13.90L107.58 6.51L106.40 6.36L106.47 6.12L106.47 6.12Q106.59 6.10 107.03 6.03L107.03 6.03L107.03 6.03Q107.47 5.96 107.64 5.94L107.64 5.94L107.64 5.94Q107.82 5.91 108.17 5.87L108.17 5.87L108.17 5.87Q108.53 5.83 108.84 5.82L108.84 5.82L108.84 5.82Q109.15 5.80 109.50 5.80L109.50 5.80L109.50 5.80Q110.78 5.80 111.50 6.38L111.50 6.38L111.50 6.38Q112.21 6.96 112.21 7.79L112.21 7.79L112.21 7.79Q112.21 8.98 110.80 9.76L110.80 9.76L110.80 9.80L110.80 9.80Q111.79 9.86 112.36 10.46L112.36 10.46L112.36 10.46Q112.93 11.05 112.93 11.80L112.93 11.80L112.93 11.80Q112.93 12.22 112.83 12.58L112.83 12.58L112.83 12.58Q112.72 12.95 112.46 13.29L112.46 13.29L112.46 13.29Q112.20 13.63 111.79 13.87L111.79 13.87L111.79 13.87Q111.39 14.11 110.75 14.25L110.75 14.25L110.75 14.25Q110.10 14.40 109.27 14.40L109.27 14.40ZM121.85 6.33L120.61 6.16L120.64 5.89L123.74 5.89L123.72 6.16L122.56 6.32L122.56 11.01L122.56 11.01Q122.56 11.87 122.74 12.49L122.74 12.49L122.74 12.49Q122.92 13.10 123.27 13.45L123.27 13.45L123.27 13.45Q123.62 13.79 124.07 13.95L124.07 13.95L124.07 13.95Q124.52 14.11 125.10 14.11L125.10 14.11L125.10 14.11Q126.28 14.11 126.92 13.40L126.92 13.40L126.92 13.40Q127.57 12.68 127.57 11.33L127.57 11.33L127.57 6.33L126.29 6.16L126.33 5.89L129.23 5.89L129.18 6.16L128.04 6.32L128.02 11.05L128.02 11.05Q128.02 12.78 127.28 13.68L127.28 13.68L127.28 13.68Q126.54 14.58 124.88 14.58L124.88 14.58L124.88 14.58Q124.38 14.58 123.96 14.49L123.96 14.49L123.96 14.49Q123.53 14.40 123.14 14.16L123.14 14.16L123.14 14.16Q122.74 13.93 122.46 13.56L122.46 13.56L122.46 13.56Q122.19 13.19 122.02 12.60L122.02 12.60L122.02 12.60Q121.85 12.01 121.85 11.24L121.85 11.24L121.85 6.33ZM136.98 8.09L136.91 5.89L143.97 5.89L143.73 8.16L143.39 8.12L143.27 6.24L140.74 6.24L140.74 13.90L141.95 14.08L141.87 14.40L138.78 14.40L138.81 14.11L140.01 13.90L140.01 6.24L137.57 6.24L137.33 8.15L136.98 8.09ZM162.80 6.36L161.59 6.18L161.64 5.89L167.84 5.89L167.61 8.09L167.28 8.04L167.13 6.24L163.51 6.24L163.51 10.07L165.79 10.07L166.05 9.11L166.43 9.06L166.22 11.72L165.85 11.77L165.72 10.43L163.51 10.43L163.51 13.92L165.19 14.03L165.11 14.40L161.62 14.40L161.64 14.11L162.80 13.90L162.80 6.36ZM176.33 9.75L176.33 9.75L176.33 9.75Q176.33 11.03 176.69 12.01L176.69 12.01L176.69 12.01Q177.05 13.00 177.77 13.57L177.77 13.57L177.77 13.57Q178.49 14.14 179.46 14.14L179.46 14.14L179.46 14.14Q180.04 14.14 180.53 13.92L180.53 13.92L180.53 13.92Q181.02 13.70 181.37 13.33L181.37 13.33L181.37 13.33Q181.71 12.96 181.96 12.49L181.96 12.49L181.96 12.49Q182.20 12.01 182.31 11.50L182.31 11.50L182.31 11.50Q182.43 10.99 182.43 10.48L182.43 10.48L182.43 10.48Q182.43 8.50 181.58 7.29L181.58 7.29L181.58 7.29Q180.73 6.07 179.28 6.07L179.28 6.07L179.28 6.07Q178.70 6.07 178.21 6.28L178.21 6.28L178.21 6.28Q177.71 6.49 177.37 6.85L177.37 6.85L177.37 6.85Q177.03 7.21 176.79 7.69L176.79 7.69L176.79 7.69Q176.55 8.16 176.44 8.69L176.44 8.69L176.44 8.69Q176.33 9.21 176.33 9.75ZM175.57 10.16L175.57 10.16L175.57 10.16Q175.57 8.16 176.67 6.92L176.67 6.92L176.67 6.92Q177.77 5.69 179.61 5.69L179.61 5.69L179.61 5.69Q180.74 5.69 181.56 6.27L181.56 6.27L181.56 6.27Q182.38 6.86 182.77 7.84L182.77 7.84L182.77 7.84Q183.17 8.83 183.17 10.11L183.17 10.11L183.17 10.11Q183.17 10.75 183.02 11.38L183.02 11.38L183.02 11.38Q182.87 12.00 182.54 12.58L182.54 12.58L182.54 12.58Q182.22 13.17 181.76 13.61L181.76 13.61L181.76 13.61Q181.30 14.05 180.62 14.32L180.62 14.32L180.62 14.32Q179.94 14.58 179.14 14.58L179.14 14.58L179.14 14.58Q178.08 14.58 177.26 13.98L177.26 13.98L177.26 13.98Q176.44 13.37 176.00 12.37L176.00 12.37L176.00 12.37Q175.57 11.37 175.57 10.16ZM192.71 6.18L192.71 10.11L194.26 10.11L194.26 10.11Q194.95 9.86 195.41 9.28L195.41 9.28L195.41 9.28Q195.86 8.70 195.86 8.02L195.86 8.02L195.86 8.02Q195.86 7.11 195.24 6.63L195.24 6.63L195.24 6.63Q194.63 6.15 193.54 6.15L193.54 6.15L192.71 6.18ZM194.09 14.40L190.89 14.40L190.94 14.11L192.01 13.90L192.01 6.51L190.91 6.37L190.98 6.13L190.98 6.13Q192.80 5.83 193.88 5.83L193.88 5.83L193.88 5.83Q194.65 5.83 195.25 6.05L195.25 6.05L195.25 6.05Q195.86 6.27 196.24 6.73L196.24 6.73L196.24 6.73Q196.62 7.19 196.62 7.83L196.62 7.83L196.62 7.83Q196.62 8.57 196.19 9.14L196.19 9.14L196.19 9.14Q195.76 9.72 194.73 10.23L194.73 10.23L194.73 10.23L196.05 12.19L196.05 12.19Q196.76 13.23 197.10 13.58L197.10 13.58L197.10 13.58Q197.45 13.92 197.83 14.05L197.83 14.05L198.16 14.16L198.12 14.42L198.12 14.42Q197.83 14.52 197.48 14.52L197.48 14.52L197.48 14.52Q197.20 14.52 196.94 14.40L196.94 14.40L196.94 14.40Q196.69 14.28 196.45 14.01L196.45 14.01L196.45 14.01Q196.21 13.75 196.02 13.48L196.02 13.48L196.02 13.48Q195.84 13.22 195.56 12.77L195.56 12.77L194.17 10.49L192.71 10.49L192.71 13.95L194.15 14.08L194.09 14.40ZM219.17 14.40L215.76 14.40L215.80 14.11L216.88 13.90L216.88 6.51L215.77 6.36L215.83 6.12L215.83 6.12Q216.00 6.09 216.45 6.02L216.45 6.02L216.45 6.02Q216.90 5.94 217.13 5.91L217.13 5.91L217.13 5.91Q217.36 5.88 217.77 5.84L217.77 5.84L217.77 5.84Q218.18 5.81 218.59 5.81L218.59 5.81L218.59 5.81Q219.28 5.81 219.87 5.96L219.87 5.96L219.87 5.96Q220.46 6.10 220.92 6.40L220.92 6.40L220.92 6.40Q221.38 6.69 221.64 7.18L221.64 7.18L221.64 7.18Q221.90 7.66 221.90 8.29L221.90 8.29L221.90 8.29Q221.90 8.90 221.62 9.43L221.62 9.43L221.62 9.43Q221.34 9.97 220.88 10.33L220.88 10.33L220.88 10.33Q220.42 10.69 219.82 10.90L219.82 10.90L219.82 10.90Q219.21 11.10 218.58 11.10L218.58 11.10L218.58 11.10Q218.31 11.10 218.24 11.09L218.24 11.09L218.17 10.80L218.54 10.78L218.54 10.78Q219.20 10.75 219.70 10.55L219.70 10.55L219.70 10.55Q220.19 10.36 220.48 10.03L220.48 10.03L220.48 10.03Q220.77 9.70 220.91 9.30L220.91 9.30L220.91 9.30Q221.05 8.90 221.05 8.43L221.05 8.43L221.05 8.43Q221.05 7.98 220.89 7.57L220.89 7.57L220.89 7.57Q220.72 7.16 220.40 6.83L220.40 6.83L220.40 6.83Q220.08 6.50 219.55 6.31L219.55 6.31L219.55 6.31Q219.03 6.11 218.38 6.11L218.38 6.11L217.63 6.15L217.63 13.95L219.23 14.08L219.17 14.40ZM230.82 6.36L229.59 6.18L229.64 5.89L235.83 5.89L235.62 8.07L235.31 8.03L235.18 6.24L231.53 6.24L231.53 9.89L233.82 9.89L234.07 8.94L234.44 8.89L234.21 11.55L233.86 11.61L233.75 10.26L231.53 10.26L231.53 14.03L235.37 14.03L235.87 12.19L236.15 12.26L235.95 14.40L229.61 14.40L229.65 14.11L230.82 13.90L230.82 6.36ZM243.93 8.09L243.86 5.89L250.92 5.89L250.68 8.16L250.34 8.12L250.22 6.24L247.69 6.24L247.69 13.90L248.90 14.08L248.82 14.40L245.72 14.40L245.76 14.11L246.96 13.90L246.96 6.24L244.52 6.24L244.28 8.15L243.93 8.09ZM258.64 13.60L258.64 13.60L258.84 11.66L259.17 11.71L259.36 13.21L259.36 13.21Q259.59 13.64 260.12 13.89L260.12 13.89L260.12 13.89Q260.65 14.14 261.25 14.14L261.25 14.14L261.25 14.14Q261.93 14.14 262.41 13.74L262.41 13.74L262.41 13.74Q262.89 13.33 262.89 12.61L262.89 12.61L262.89 12.61Q262.89 12.20 262.67 11.83L262.67 11.83L262.67 11.83Q262.46 11.46 262.11 11.18L262.11 11.18L262.11 11.18Q261.77 10.90 261.35 10.63L261.35 10.63L261.35 10.63Q260.93 10.36 260.51 10.07L260.51 10.07L260.51 10.07Q260.09 9.79 259.75 9.48L259.75 9.48L259.75 9.48Q259.40 9.17 259.19 8.75L259.19 8.75L259.19 8.75Q258.97 8.33 258.97 7.84L258.97 7.84L258.97 7.84Q258.97 6.88 259.67 6.29L259.67 6.29L259.67 6.29Q260.36 5.71 261.24 5.71L261.24 5.71L261.24 5.71Q261.83 5.71 262.37 5.90L262.37 5.90L262.37 5.90Q262.91 6.09 263.24 6.46L263.24 6.46L263.01 8.58L262.70 8.53L262.51 6.87L262.51 6.87Q262.33 6.54 261.91 6.32L261.91 6.32L261.91 6.32Q261.50 6.10 261.06 6.10L261.06 6.10L261.06 6.10Q260.47 6.10 260.06 6.48L260.06 6.48L260.06 6.48Q259.64 6.87 259.64 7.52L259.64 7.52L259.64 7.52Q259.64 7.96 259.86 8.35L259.86 8.35L259.86 8.35Q260.09 8.74 260.44 9.03L260.44 9.03L260.44 9.03Q260.79 9.32 261.21 9.61L261.21 9.61L261.21 9.61Q261.64 9.89 262.07 10.17L262.07 10.17L262.07 10.17Q262.49 10.45 262.85 10.75L262.85 10.75L262.85 10.75Q263.20 11.05 263.42 11.45L263.42 11.45L263.42 11.45Q263.64 11.85 263.64 12.29L263.64 12.29L263.64 12.29Q263.64 13.28 262.89 13.93L262.89 13.93L262.89 13.93Q262.14 14.57 260.89 14.57L260.89 14.57L260.89 14.57Q260.18 14.57 259.58 14.30L259.58 14.30L259.58 14.30Q258.98 14.03 258.64 13.60Z"></path></g></svg>