<svg data-v-fde0c5aa="" xmlns="http://www.w3.org/2000/svg" viewBox="0 0 300 300" class="font"><!----><defs data-v-fde0c5aa=""><linearGradient data-v-fde0c5aa="" gradientTransform="rotate(25)" id="313d166b-a95a-4976-8952-e41cf037ecaf" x1="0%" y1="0%" x2="100%" y2="0%"><stop data-v-fde0c5aa="" offset="0%" stop-color="#FBF3EF" stop-opacity="1"></stop><stop data-v-fde0c5aa="" offset="100%" stop-color="#FFFFFF" stop-opacity="1"></stop></linearGradient></defs><rect data-v-fde0c5aa="" fill="url(#313d166b-a95a-4976-8952-e41cf037ecaf)" x="0" y="0" width="300px" height="300px" class="logo-background-square"></rect><defs data-v-fde0c5aa=""><!----></defs><g data-v-fde0c5aa="" id="41a8453f-51ec-4af8-9b66-8e4a9dba5bcc" fill="#2F190E" transform="matrix(2.953020134228188,0,0,2.953020134228188,36.24966448585459,121.42952963809839)"><path d="M5.21 6.06L5.21 6.06Q6.29 6.06 7.14 6.54L7.14 6.54L7.14 6.54Q7.99 7.01 8.48 7.87L8.48 7.87L8.48 7.87Q8.96 8.72 8.96 9.84L8.96 9.84L8.96 9.84Q8.96 10.96 8.48 11.82L8.48 11.82L8.48 11.82Q7.99 12.68 7.14 13.16L7.14 13.16L7.14 13.16Q6.29 13.64 5.21 13.64L5.21 13.64L5.21 13.64Q4.41 13.64 3.75 13.33L3.75 13.33L3.75 13.33Q3.08 13.02 2.62 12.43L2.62 12.43L2.62 16.27L1.27 16.27L1.27 6.13L2.56 6.13L2.56 7.31L2.56 7.31Q3.01 6.69 3.70 6.38L3.70 6.38L3.70 6.38Q4.38 6.06 5.21 6.06L5.21 6.06ZM5.10 12.46L5.10 12.46Q5.81 12.46 6.38 12.13L6.38 12.13L6.38 12.13Q6.94 11.80 7.27 11.21L7.27 11.21L7.27 11.21Q7.60 10.61 7.60 9.84L7.60 9.84L7.60 9.84Q7.60 9.07 7.27 8.48L7.27 8.48L7.27 8.48Q6.94 7.88 6.38 7.56L6.38 7.56L6.38 7.56Q5.81 7.24 5.10 7.24L5.10 7.24L5.10 7.24Q4.40 7.24 3.83 7.57L3.83 7.57L3.83 7.57Q3.26 7.90 2.93 8.48L2.93 8.48L2.93 8.48Q2.60 9.07 2.60 9.84L2.60 9.84L2.60 9.84Q2.60 10.61 2.93 11.21L2.93 11.21L2.93 11.21Q3.25 11.80 3.82 12.13L3.82 12.13L3.82 12.13Q4.40 12.46 5.10 12.46L5.10 12.46ZM17.53 9.88L17.53 9.88Q17.53 10.04 17.50 10.29L17.50 10.29L11.48 10.29L11.48 10.29Q11.61 11.27 12.34 11.87L12.34 11.87L12.34 11.87Q13.08 12.46 14.17 12.46L14.17 12.46L14.17 12.46Q15.50 12.46 16.31 11.56L16.31 11.56L17.05 12.43L17.05 12.43Q16.55 13.02 15.80 13.33L15.80 13.33L15.80 13.33Q15.05 13.64 14.13 13.64L14.13 13.64L14.13 13.64Q12.95 13.64 12.04 13.15L12.04 13.15L12.04 13.15Q11.13 12.67 10.63 11.80L10.63 11.80L10.63 11.80Q10.14 10.93 10.14 9.84L10.14 9.84L10.14 9.84Q10.14 8.76 10.62 7.90L10.62 7.90L10.62 7.90Q11.10 7.03 11.95 6.54L11.95 6.54L11.95 6.54Q12.80 6.06 13.86 6.06L13.86 6.06L13.86 6.06Q14.92 6.06 15.76 6.54L15.76 6.54L15.76 6.54Q16.59 7.03 17.06 7.90L17.06 7.90L17.06 7.90Q17.53 8.76 17.53 9.88L17.53 9.88ZM13.86 7.20L13.86 7.20Q12.89 7.20 12.24 7.78L12.24 7.78L12.24 7.78Q11.59 8.37 11.48 9.32L11.48 9.32L16.24 9.32L16.24 9.32Q16.13 8.39 15.48 7.79L15.48 7.79L15.48 7.79Q14.83 7.20 13.86 7.20L13.86 7.20ZM23.14 12.15L23.56 13.12L23.56 13.12Q23.27 13.37 22.83 13.50L22.83 13.50L22.83 13.50Q22.40 13.64 21.94 13.64L21.94 13.64L21.94 13.64Q20.82 13.64 20.20 13.03L20.20 13.03L20.20 13.03Q19.59 12.43 19.59 11.31L19.59 11.31L19.59 7.24L18.33 7.24L18.33 6.13L19.59 6.13L19.59 4.51L20.93 4.51L20.93 6.13L23.06 6.13L23.06 7.24L20.93 7.24L20.93 11.26L20.93 11.26Q20.93 11.86 21.23 12.18L21.23 12.18L21.23 12.18Q21.53 12.50 22.09 12.50L22.09 12.50L22.09 12.50Q22.71 12.50 23.14 12.15L23.14 12.15ZM31.08 13.64L31.08 13.64Q30.17 13.64 29.33 13.39L29.33 13.39L29.33 13.39Q28.49 13.15 28.01 12.77L28.01 12.77L28.57 11.70L28.57 11.70Q29.06 12.05 29.76 12.26L29.76 12.26L29.76 12.26Q30.46 12.47 31.18 12.47L31.18 12.47L31.18 12.47Q32.94 12.47 32.94 11.47L32.94 11.47L32.94 11.47Q32.94 11.13 32.70 10.93L32.70 10.93L32.70 10.93Q32.47 10.74 32.11 10.65L32.11 10.65L32.11 10.65Q31.75 10.56 31.09 10.44L31.09 10.44L31.09 10.44Q30.20 10.30 29.63 10.12L29.63 10.12L29.63 10.12Q29.06 9.94 28.66 9.51L28.66 9.51L28.66 9.51Q28.25 9.07 28.25 8.29L28.25 8.29L28.25 8.29Q28.25 7.28 29.09 6.67L29.09 6.67L29.09 6.67Q29.93 6.06 31.35 6.06L31.35 6.06L31.35 6.06Q32.09 6.06 32.83 6.24L32.83 6.24L32.83 6.24Q33.57 6.43 34.05 6.73L34.05 6.73L33.47 7.80L33.47 7.80Q32.56 7.21 31.33 7.21L31.33 7.21L31.33 7.21Q30.48 7.21 30.03 7.49L30.03 7.49L30.03 7.49Q29.58 7.77 29.58 8.23L29.58 8.23L29.58 8.23Q29.58 8.60 29.83 8.81L29.83 8.81L29.83 8.81Q30.09 9.02 30.46 9.11L30.46 9.11L30.46 9.11Q30.83 9.21 31.50 9.34L31.50 9.34L31.50 9.34Q32.40 9.49 32.95 9.67L32.95 9.67L32.95 9.67Q33.50 9.84 33.89 10.26L33.89 10.26L33.89 10.26Q34.29 10.68 34.29 11.44L34.29 11.44L34.29 11.44Q34.29 12.45 33.42 13.04L33.42 13.04L33.42 13.04Q32.56 13.64 31.08 13.64L31.08 13.64ZM41.54 6.13L42.88 6.13L42.88 13.55L41.61 13.55L41.61 12.43L41.61 12.43Q41.20 13.01 40.54 13.32L40.54 13.32L40.54 13.32Q39.87 13.64 39.09 13.64L39.09 13.64L39.09 13.64Q37.60 13.64 36.75 12.82L36.75 12.82L36.75 12.82Q35.90 12.00 35.90 10.40L35.90 10.40L35.90 6.13L37.24 6.13L37.24 10.25L37.24 10.25Q37.24 11.33 37.76 11.88L37.76 11.88L37.76 11.88Q38.28 12.43 39.24 12.43L39.24 12.43L39.24 12.43Q40.31 12.43 40.92 11.79L40.92 11.79L40.92 11.79Q41.54 11.14 41.54 9.97L41.54 9.97L41.54 6.13ZM46.73 7.38L46.73 7.38Q47.08 6.73 47.77 6.40L47.77 6.40L47.77 6.40Q48.45 6.06 49.43 6.06L49.43 6.06L49.43 7.36L49.43 7.36Q49.32 7.35 49.13 7.35L49.13 7.35L49.13 7.35Q48.03 7.35 47.41 8.00L47.41 8.00L47.41 8.00Q46.79 8.65 46.79 9.86L46.79 9.86L46.79 13.55L45.44 13.55L45.44 6.13L46.73 6.13L46.73 7.38ZM53.90 4.19L53.90 4.19Q52.70 4.19 52.70 5.49L52.70 5.49L52.70 6.13L54.85 6.13L54.85 7.24L52.72 7.24L52.72 13.55L51.38 13.55L51.38 7.24L50.12 7.24L50.12 6.13L51.38 6.13L51.38 5.47L51.38 5.47Q51.38 4.37 52.02 3.72L52.02 3.72L52.02 3.72Q52.67 3.08 53.83 3.08L53.83 3.08L53.83 3.08Q54.28 3.08 54.67 3.19L54.67 3.19L54.67 3.19Q55.06 3.30 55.34 3.51L55.34 3.51L54.94 4.54L54.94 4.54Q54.47 4.19 53.90 4.19L53.90 4.19ZM62.83 9.88L62.83 9.88Q62.83 10.04 62.80 10.29L62.80 10.29L56.78 10.29L56.78 10.29Q56.91 11.27 57.65 11.87L57.65 11.87L57.65 11.87Q58.38 12.46 59.47 12.46L59.47 12.46L59.47 12.46Q60.80 12.46 61.61 11.56L61.61 11.56L62.36 12.43L62.36 12.43Q61.85 13.02 61.10 13.33L61.10 13.33L61.10 13.33Q60.35 13.64 59.43 13.64L59.43 13.64L59.43 13.64Q58.25 13.64 57.34 13.15L57.34 13.15L57.34 13.15Q56.43 12.67 55.94 11.80L55.94 11.80L55.94 11.80Q55.44 10.93 55.44 9.84L55.44 9.84L55.44 9.84Q55.44 8.76 55.92 7.90L55.92 7.90L55.92 7.90Q56.41 7.03 57.25 6.54L57.25 6.54L57.25 6.54Q58.10 6.06 59.16 6.06L59.16 6.06L59.16 6.06Q60.23 6.06 61.06 6.54L61.06 6.54L61.06 6.54Q61.89 7.03 62.36 7.90L62.36 7.90L62.36 7.90Q62.83 8.76 62.83 9.88L62.83 9.88ZM59.16 7.20L59.16 7.20Q58.20 7.20 57.55 7.78L57.55 7.78L57.55 7.78Q56.90 8.37 56.78 9.32L56.78 9.32L61.54 9.32L61.54 9.32Q61.43 8.39 60.78 7.79L60.78 7.79L60.78 7.79Q60.13 7.20 59.16 7.20L59.16 7.20ZM65.98 7.38L65.98 7.38Q66.33 6.73 67.02 6.40L67.02 6.40L67.02 6.40Q67.70 6.06 68.68 6.06L68.68 6.06L68.68 7.36L68.68 7.36Q68.57 7.35 68.38 7.35L68.38 7.35L68.38 7.35Q67.28 7.35 66.66 8.00L66.66 8.00L66.66 8.00Q66.04 8.65 66.04 9.86L66.04 9.86L66.04 13.55L64.69 13.55L64.69 6.13L65.98 6.13L65.98 7.38ZM72.56 13.64L72.56 13.64Q71.65 13.64 70.81 13.39L70.81 13.39L70.81 13.39Q69.97 13.15 69.50 12.77L69.50 12.77L70.06 11.70L70.06 11.70Q70.55 12.05 71.25 12.26L71.25 12.26L71.25 12.26Q71.95 12.47 72.66 12.47L72.66 12.47L72.66 12.47Q74.42 12.47 74.42 11.47L74.42 11.47L74.42 11.47Q74.42 11.13 74.19 10.93L74.19 10.93L74.19 10.93Q73.95 10.74 73.59 10.65L73.59 10.65L73.59 10.65Q73.23 10.56 72.58 10.44L72.58 10.44L72.58 10.44Q71.68 10.30 71.11 10.12L71.11 10.12L71.11 10.12Q70.55 9.94 70.14 9.51L70.14 9.51L70.14 9.51Q69.73 9.07 69.73 8.29L69.73 8.29L69.73 8.29Q69.73 7.28 70.57 6.67L70.57 6.67L70.57 6.67Q71.41 6.06 72.83 6.06L72.83 6.06L72.83 6.06Q73.57 6.06 74.31 6.24L74.31 6.24L74.31 6.24Q75.05 6.43 75.53 6.73L75.53 6.73L74.96 7.80L74.96 7.80Q74.05 7.21 72.81 7.21L72.81 7.21L72.81 7.21Q71.96 7.21 71.51 7.49L71.51 7.49L71.51 7.49Q71.06 7.77 71.06 8.23L71.06 8.23L71.06 8.23Q71.06 8.60 71.32 8.81L71.32 8.81L71.32 8.81Q71.57 9.02 71.94 9.11L71.94 9.11L71.94 9.11Q72.31 9.21 72.98 9.34L72.98 9.34L72.98 9.34Q73.88 9.49 74.43 9.67L74.43 9.67L74.43 9.67Q74.98 9.84 75.38 10.26L75.38 10.26L75.38 10.26Q75.77 10.68 75.77 11.44L75.77 11.44L75.77 11.44Q75.77 12.45 74.91 13.04L74.91 13.04L74.91 13.04Q74.05 13.64 72.56 13.64L72.56 13.64Z"></path></g><!----><!----></svg>